<svg height="512pt" viewBox="0 -5 512.00017 512" width="512pt" xmlns="http://www.w3.org/2000/svg"><path d="m104.0625 204.648438c-2.566406.589843-4.652344 2.460937-5.519531 4.949218l-98.125 282.835938c-2.054688 5.917968 3.820312 11.789062 9.738281 9.738281l282.835938-98.128906c5.25-1.824219 6.816406-8.726563 2.902343-12.640625l-184.707031-184.707032c-1.867188-1.863281-4.558594-2.640624-7.125-2.046874zm0 0" fill="#ffe45c"/><path d="m104.0625 204.648438c-2.566406.589843-4.652344 2.460937-5.519531 4.949218l-98.125 282.835938c-2.054688 5.917968 3.820312 11.789062 9.738281 9.738281l282.835938-98.128906c5.25-1.824219 6.816406-8.726563 2.902343-12.640625l-184.707031-184.707032c-1.867188-1.863281-4.558594-2.640624-7.125-2.046874zm0 0" fill="#ffeb85"/><path d="m295.894531 391.402344-19.304687-19.304688c-.851563 1.59375-2.253906 2.90625-4.136719 3.5625l-263.203125 91.3125-8.832031 25.457032c-2.054688 5.921874 3.820312 11.792968 9.738281 9.742187l282.835938-98.128906c5.25-1.824219 6.816406-8.726563 2.902343-12.640625zm0 0" fill="#fd3"/><g fill="#eb6c8e"><path d="m171.976562 267.484375-91.847656-4.804687-13.929687 40.144531 148.902343 7.785156zm0 0"/><path d="m39.695312 379.21875 257.195313 13.449219c-.28125-.445313-.605469-.875-.996094-1.265625l-41.847656-41.847656-200.421875-10.480469zm0 0"/><path d="m13.191406 455.609375 113.984375 5.960937 102.378907-35.515624-202.433594-10.585938zm0 0"/></g><path d="m272.453125 375.660156-39.398437 13.667969 63.835937 3.339844c-.28125-.445313-.605469-.875-.996094-1.265625l-19.304687-19.300782c-.851563 1.585938-2.253906 2.902344-4.136719 3.558594zm0 0" fill="#e54771"/><path d="m38.226562 456.921875 88.949219 4.648437 102.378907-35.515624-88.949219-4.652344zm0 0" fill="#e54771"/><path d="m156.390625 221.0625c-4.207031 0-7.777344-3.230469-8.125-7.5-.816406-10.03125 1.023437-20.144531 5.320313-29.25 3.015624-6.386719 6.734374-10.972656 11.359374-14.023438 7.988282-5.261718 17.460938-5.082031 25.074219-4.933593l1.191407.019531c10.921874.183594 37.136718-1.242188 44.777343-18.59375 3.277344-7.445312 2.574219-16.816406 1.835938-26.742188-1.007813-13.496093-2.148438-28.796874 7.878906-40.84375 7.203125-8.648437 17.523437-12.066406 26.632813-15.082031 5.957031-1.972656 11.578124-3.835937 15.96875-6.875 3.707031-2.5625 8.792968-1.636719 11.359374 2.070313 2.566407 3.707031 1.640626 8.792968-2.066406 11.355468-6.320312 4.371094-13.339844 6.699219-20.128906 8.949219-8.050781 2.664063-15.003906 4.96875-19.214844 10.03125-5.804687 6.96875-5.035156 17.261719-4.148437 29.183594.820312 10.949219 1.742187 23.359375-3.171875 34.53125-8.160156 18.535156-30.039063 28.832031-60.007813 28.339844l-1.21875-.019531c-6.179687-.121094-12.019531-.234376-15.773437 2.238281-2.027344 1.339843-3.90625 3.816406-5.582032 7.367187-3.078124 6.523438-4.398437 13.765625-3.8125 20.953125.363282 4.492188-2.980468 8.433594-7.472656 8.796875-.230468.019532-.453125.027344-.675781.027344zm0 0" fill="#9a92d2"/><path d="m293.878906 355.65625c-.3125 0-.628906-.019531-.945312-.054688-4.476563-.519531-7.691406-4.566406-7.175782-9.046874 1.433594-12.398438 2.910157-25.226563 7.945313-37.53125 5.960937-14.574219 16.441406-25.613282 28.746094-30.277344 8.535156-3.238282 17.414062-3.46875 26-3.691406 10.140625-.265626 18.894531-.492188 24.867187-5.480469 7.066406-5.894531 7.914063-16.363281 8.890625-28.484375.878907-10.871094 1.789063-22.113282 7.410157-32.105469 6.613281-11.746094 18.910156-20.175781 37.597656-25.773437 3.480468-1.039063 7-1.96875 10.410156-2.867188 9.441406-2.488281 18.363281-4.839844 25.996094-9.355469 8.628906-5.105469 16.285156-15.167969 14.226562-24.523437-.972656-4.402344 1.8125-8.757813 6.214844-9.730469 4.398438-.96875 8.757812 1.8125 9.726562 6.21875 3.925782 17.820313-8.148437 33.980469-21.855468 42.085937-9.589844 5.675782-20.042969 8.429688-30.148438 11.09375-3.429687.902344-6.667968 1.753907-9.886718 2.71875-14.441407 4.324219-23.617188 10.257813-28.050782 18.140626-3.867187 6.867187-4.59375 15.875-5.367187 25.410156-1.113281 13.789062-2.375 29.417968-14.703125 39.707031-10.332032 8.625-23.386719 8.964844-34.902344 9.265625-7.554688.195312-14.691406.382812-20.640625 2.636719-8.085937 3.066406-15.167969 10.789062-19.421875 21.191406-4.183594 10.226563-5.53125 21.917969-6.835938 33.222656-.480468 4.160157-4.007812 7.230469-8.097656 7.230469zm0 0" fill="#9a92d2"/><path d="m343.828125 156.523438c-3.804687 0-7.207031-2.671876-7.992187-6.542969-5.613282-27.699219 10.199218-58.4375 36-69.972657 3.898437-1.742187 7.875-3.050781 11.71875-4.316406 6.765624-2.226562 13.15625-4.328125 17.554687-8.355468 4.816406-4.414063 7.554687-11.402344 10.453125-18.796876 3.648438-9.316406 7.785156-19.875 17.152344-26.769531 9.382812-6.910156 21.332031-7.878906 30.054687-8.582031 4.492188-.359375 8.433594 2.984375 8.796875 7.476562.363282 4.492188-2.984375 8.429688-7.480468 8.792969-9.089844.738281-16.460938 1.605469-21.691407 5.457031-5.566406 4.101563-8.511719 11.621094-11.632812 19.578126-3.285157 8.398437-7.011719 17.914062-14.625 24.882812-6.984375 6.398438-15.371094 9.15625-23.476563 11.824219-3.613281 1.191406-7.027344 2.3125-10.160156 3.714843-19.109375 8.542969-30.820312 31.308594-26.664062 51.824219.898437 4.417969-1.957032 8.726563-6.378907 9.621094-.546875.109375-1.089843.164063-1.628906.164063zm0 0" fill="#9a92d2"/><path d="m350.679688 2.253906c-.984376-1.984375-3.476563-2.828125-5.46875-1.839844l-29.242188 14.53125c-1.988281.984376-2.828125 3.480469-1.839844 5.472657l14.53125 29.238281c.988282 1.992188 3.476563 2.828125 5.46875 1.839844l29.242188-14.53125c2.019531-1 2.839844-3.449219 1.839844-5.46875zm0 0" fill="#ffe45c"/><path d="m479.695312 346.164062-24.484374-21.601562c-1.691407-1.492188-4.269532-1.328125-5.761719.363281l-21.601563 24.484375c-1.488281 1.691406-1.328125 4.269532.359375 5.761719l24.488281 21.601563c1.664063 1.46875 4.289063 1.304687 5.757813-.363282l21.601563-24.484375c1.46875-1.664062 1.308593-4.289062-.359376-5.761719zm0 0" fill="#ffe45c"/><path d="m171.726562 61.683594-27.414062-17.738282c-1.890625-1.222656-4.417969-.683593-5.640625 1.210938l-17.738281 27.414062c-1.226563 1.890626-.683594 4.417969 1.207031 5.644532l27.414063 17.738281c1.867187 1.207031 4.4375.652344 5.644531-1.210937l17.738281-27.414063c1.222656-1.894531.683594-4.417969-1.210938-5.644531zm0 0" fill="#eb6c8e"/><path d="m314.339844 177.785156-32.613282-1.578125c-2.21875-.097656-4.167968 1.65625-4.273437 3.878907l-1.578125 32.617187c-.109375 2.25 1.625 4.164063 3.878906 4.269531l32.613282 1.582032c2.21875.097656 4.164062-1.65625 4.273437-3.882813l1.578125-32.613281c.109375-2.25-1.628906-4.164063-3.878906-4.273438zm0 0" fill="#eb6c8e"/><path d="m511.691406 233.089844-12.433594-30.195313c-.859374-2.082031-3.242187-3.078125-5.328124-2.21875l-30.191407 12.433594c-2.050781.84375-3.066406 3.269531-2.21875 5.328125l12.429688 30.191406c.84375 2.054688 3.273437 3.066406 5.328125 2.222656l30.195312-12.433593c2.082032-.859375 3.078125-3.246094 2.21875-5.328125zm0 0" fill="#eb6c8e"/></svg>