<svg id="Capa_1" data-name="Capa 1" xmlns="http://www.w3.org/2000/svg" xmlns:xlink="http://www.w3.org/1999/xlink" viewBox="0 0 100.03 170.75"><defs><style>.cls-1{fill:none;}.cls-2{opacity:0.2;}.cls-3{clip-path:url(#clip-path);}.cls-4{fill:#f2d5ca;}.cls-5{fill:#ef652d;}.cls-6{fill:#ffd44c;}.cls-7{fill:#006b80;}.cls-8{fill:#ff6f54;}.cls-9{fill:#735645;}.cls-10{fill:#ffe4ac;}</style><clipPath id="clip-path"><rect id="SVGID" class="cls-1" width="100.03" height="170.75"/></clipPath></defs><g class="cls-2"><g class="cls-3"><path class="cls-4" d="M102.2,80.92a38.15,38.15,0,0,1-6.4,8.87c-4.81,5.33-9.75,10.33-14.59,15.59-2,2.14-4,4.12-5.95,6.26-1.07,1.16-1.32,0-1.78-1.21-1.13-2.86-.18-5.34.37-8,.52-2.47,1.66-4.21,2.38-6.42a125.53,125.53,0,0,1,6.83-16.38c1.41-2.9,2.16-6.42,3.48-9.26a67.66,67.66,0,0,0,2.71-8.26c.27-.88,1-1.41.67-2.82-.12-.6.34-.78.74-.66,2.48.72,4.42,3.11,6.31,5.7,1.1,1.52,2.46,2.35,3.5,4a17.34,17.34,0,0,1,2.6,8.15A8.17,8.17,0,0,1,102.2,80.92Zm-2.52-3.33-.68,1C99.28,78.42,99.72,78.48,99.68,77.59Z"/><path class="cls-4" d="M2.17,80.92a38.15,38.15,0,0,1-6.4,8.87C-9,95.12-14,100.12-18.82,105.38c-2,2.14-4,4.12-5.95,6.26-1.07,1.16-1.32,0-1.78-1.21-1.13-2.86-.18-5.34.37-8,.52-2.47,1.66-4.21,2.38-6.42A125.53,125.53,0,0,1-17,79.67c1.41-2.9,2.16-6.42,3.48-9.26a67.66,67.66,0,0,0,2.71-8.26c.28-.88,1-1.41.68-2.82-.13-.6.33-.78.73-.66,2.48.72,4.43,3.11,6.31,5.7,1.1,1.52,2.46,2.35,3.5,4A17.34,17.34,0,0,1,3,76.53,8.17,8.17,0,0,1,2.17,80.92ZM-.35,77.59c-.25.39-.46.72-.68,1C-.75,78.42-.31,78.48-.35,77.59Z"/><path class="cls-5" d="M64.09,124.8a11.72,11.72,0,0,1,1.17-4.26c1-1.92,2.14-2.16,3.47-1.44a8.21,8.21,0,0,0,1.93.9c.82.2,1.43.94,1.83,2.23a4.73,4.73,0,0,1,.31,1.86c0,.56-.24.79-.54.79a4.76,4.76,0,0,1-2.5-.95c-1.11-.71-1.33-.19-1.9,1.43a7.67,7.67,0,0,0-.37,3.79c.14,1-.45,1.66-1.11,1.53a5.24,5.24,0,0,1-2.54-1.9c-.63-.71-1.26-1-1.93-.25a4.3,4.3,0,0,0-.7,2.13,23,23,0,0,0,0,4.07c0,1.57-.65,3.38-1.34,3.63-1.25.47-2.34-.15-3.38-1.24-.33-.34-.66-.67-1-1s-.6-.35-.74.41c-.21,1.1-.53,2.11-.8,3.16a1.62,1.62,0,0,0,0,.54c.14.95-.12,1.58-.69,1.54-1.23-.1-2.06-1.4-2.49-3.32a3.21,3.21,0,0,1,.19-1.3,19.68,19.68,0,0,1,1.24-4.47,2.1,2.1,0,0,1,3.08-1.23,7.37,7.37,0,0,1,1.87,2.27c.41.57.55.55.73-.28.42-1.94.82-3.9,1.29-5.8a6,6,0,0,1,1.51-3c1.09-.93,2.21-.67,3.3.16Z"/><path class="cls-6" d="M71.06,80.22a10.45,10.45,0,0,0-.33,2,.89.89,0,0,1-.19.57,6.43,6.43,0,0,1-3.34,2.07c-.49.09-.88-.52-1.46-.37-4.32,1.15-8.62,2.67-13,3.12-2,.21-4.06.3-6.09.42a.76.76,0,0,1-.93-.7A3.77,3.77,0,0,1,46,84.55c1.39-2,3.1-2.79,4.8-3.66,1-.52,2-1.31,3-2a15.89,15.89,0,0,1,3.52-1.41c2.24-.79,4.48-1.61,6.73-2.33,1.11-.35,2.19-.91,3.29-1.27.88-.28,1.84-.65,2.69.31.27.3.52.67.79,1,.43.45.29,1.35.28,1.81A12,12,0,0,1,71.06,80.22Z"/><path class="cls-7" d="M38.46,68.37a28.91,28.91,0,0,0-1,4.1c-.5,2-.79,4-1.1,6.12a50.12,50.12,0,0,1-2.16,9.26,6.76,6.76,0,0,1-2.88,3.5c-.58.41-2-1.63-2.13-2.8a11.6,11.6,0,0,1,1.09-6.1,47.56,47.56,0,0,1,3.48-7,60.86,60.86,0,0,1,3.8-6.11C37.81,69,37.82,68.13,38.46,68.37Z"/><path class="cls-8" d="M34.88,118.4a4.39,4.39,0,0,1,.74-1c1.11-1.13,2.11-2.51,3.2-3.7s2-2.62,3.22-3.19a4.12,4.12,0,0,0,1.35-1.22,1.62,1.62,0,0,1,.55-.53,7.94,7.94,0,0,0,2.33-2.09,4.28,4.28,0,0,1,.48-.54c.16-.12.35-.23.46.21a3.27,3.27,0,0,1-.77,1.15c-.84.9-1.68,1.78-2.49,2.75a15.92,15.92,0,0,1-3,2.7,12.72,12.72,0,0,0-2.78,2.6,15.73,15.73,0,0,1-2.91,2.77C35.17,118.43,35.06,118.57,34.88,118.4Z"/><path class="cls-8" d="M44.63,116.48a8,8,0,0,1-1.55,2A35.86,35.86,0,0,0,38.17,124a9.45,9.45,0,0,1-1.79,1.74,26.9,26.9,0,0,1-3,2.37.85.85,0,0,1-.59.24,1.72,1.72,0,0,1,.61-1.17,40.27,40.27,0,0,1,3-2.88c.62-.59,1.13-1.44,1.75-2q2-1.81,3.89-3.68c.55-.54,1.08-1.14,1.63-1.69C44,116.64,44.26,116.37,44.63,116.48Z"/><path class="cls-8" d="M39.36,117.49a.93.93,0,0,1-.28.71,23.26,23.26,0,0,1-4,4.3c-1,1-2.09,1.92-3.09,3a1.51,1.51,0,0,1-.23.21,11.27,11.27,0,0,0-1.84,1.6c-.11.14-.25.27-.36,0a.46.46,0,0,1,.11-.58c.65-.56,1.13-1.54,1.77-2.13.92-.84,1.7-2.06,2.63-2.88A41,41,0,0,1,38.34,118C38.65,117.83,39,117.49,39.36,117.49Z"/><path class="cls-8" d="M53.87,101.91a2.52,2.52,0,0,1-.67.9c-.83.81-1.68,1.57-2.49,2.43s-1.65,2.37-2.52,3.44c-.26.31-.52.64-.79.91a20.21,20.21,0,0,0-2.51,3,4.71,4.71,0,0,1-.91,1.09.65.65,0,0,1-.5.23c-.24,0-.36-.29-.28-.68a1.43,1.43,0,0,1,.33-.78c1.73-1.66,3.26-3.84,5-5.56,1.22-1.23,2.35-2.69,3.57-3.88a8.68,8.68,0,0,1,1.43-1.19C53.6,101.79,53.72,101.65,53.87,101.91Z"/><path class="cls-8" d="M49.22,111.71a7.9,7.9,0,0,1-1.9,2.41A2.61,2.61,0,0,1,49.22,111.71Z"/><path class="cls-8" d="M42.31,114.66a1.7,1.7,0,0,1-.87,1C41.44,114.81,41.75,114.45,42.31,114.66Z"/><path class="cls-8" d="M18.83,55.49c-1.24,0-2.58-2-3.13-4.5-.16-.77-.31-1.55-.44-2.34-.2-1.23.62-3.29,1.37-3.39s1.14-.79,1.78-1.25c-1.69-.33-3.15-3.54-3.37-5.92a16.64,16.64,0,0,1,0-1.87c0-.67.4-.65.61-.71.95-.26,1.61-1.57,2.52-2,.16-.08.31-.19.52-.31a8.19,8.19,0,0,1-2.48-4.69l.09-.08a2.94,2.94,0,0,1,.52-3.09,5.87,5.87,0,0,1,2.41-2.69c1.9-.85,3.85-1.26,5.73-2.18a8.19,8.19,0,0,0,3.51-2.78c.52-.76,1.73-.17,2.39,1.06a15.91,15.91,0,0,1,1.48,5.78c.13,1.17-.47,1.28-.74,1.87-.12.25-.25.48-.52,1a24.07,24.07,0,0,0,2.66-1.74,14.47,14.47,0,0,0,2-1.51c.29-.34,1.05-.39,1.3.78,0,.14.22.2.34.25,1.35.61,1.63,2.57,2,4.46.48,2.51-.7,3.47-1.52,4.73-.59.89-1.24,1.67-1.87,2.5.42.49.84.27,1.25.14,1.39-.45,2.6.66,3.25,2.8a17.68,17.68,0,0,1,.77,5.91,2.07,2.07,0,0,1-.56,1.51c-1.1,1.06-2.19,2.17-3.3,3.21a1.15,1.15,0,0,0-.32,1.21c.45,2-.06,2.89-1.11,3.76-1.54,1.29-3,3-4.44,4.52a9.75,9.75,0,0,1-4.22,2.6c-.09,0-.22,0-.25.11-.48,1.33-1.11.86-1.62.25-.76-.92-1.29,0-1.88.43s-1.13,1-1.7,1.43-1.82-.52-2.31-1.74A11.26,11.26,0,0,1,18.83,55.49Z"/><path class="cls-6" d="M102.17-25.73A47.32,47.32,0,0,1,105.54-16c.65,2.67,1.9,4.61,2.5,7.25a27,27,0,0,1,.21,11.54c-.64,2.77-.54,5.44-.85,8.12-.16,1.33-.32,2.52-1.16,3.28s-1,2.65-1.53,4a21.92,21.92,0,0,1-6.17,9.43c-.84.73-1.67,1.45-2.48,2.27-1.65,1.7-3.49.86-5.25,1.22-2.45.5-4.27-1.95-6.24-3.65-.82-.72-1.71-.11-2.49-.73-2.45-1.94-4.15-5.26-5.62-9-2-5.2-3.71-10.66-3-17.22a59.12,59.12,0,0,1,4-16C80-22,84-24.66,87.44-28.74,91.79-33.84,100.25-29.86,102.17-25.73ZM97.55-6.88a7.4,7.4,0,0,1-.65-3.18c-1.07,0-1.72.79-1.26,2.46A1.21,1.21,0,0,0,97.55-6.88Zm3.22-13.47a6.85,6.85,0,0,0-1.23-3.42C99.38-21.56,99.38-21.56,100.77-20.35ZM90.39-29c-.76-.84-2.36-.25-3.06,1Zm-.12-1.07c.89,0,1.93,1,2.87-.74ZM98-22.92l.08-.35-.7-.45-.07.33Z"/><path class="cls-6" d="M102.17,145a47.32,47.32,0,0,1,3.37,9.69c.65,2.67,1.9,4.61,2.5,7.25a27,27,0,0,1,.21,11.54c-.64,2.77-.54,5.44-.85,8.12-.16,1.33-.32,2.52-1.16,3.28s-1,2.65-1.53,4a21.92,21.92,0,0,1-6.17,9.43c-.84.73-1.67,1.45-2.48,2.27-1.65,1.7-3.49.86-5.25,1.22-2.45.5-4.27-2-6.24-3.65-.82-.72-1.71-.11-2.49-.73-2.45-1.94-4.15-5.26-5.62-9-2-5.2-3.71-10.66-3-17.22a59.12,59.12,0,0,1,4-16.05c2.55-6.43,6.54-9.1,10-13.18C91.79,136.91,100.25,140.89,102.17,145Zm-4.62,18.85a7.4,7.4,0,0,1-.65-3.18c-1.07,0-1.72.79-1.26,2.46A1.21,1.21,0,0,0,97.55,163.87Zm3.22-13.47A6.85,6.85,0,0,0,99.54,147C99.38,149.19,99.38,149.19,100.77,150.4Zm-10.38-8.64c-.76-.84-2.36-.25-3.06,1Zm-.12-1.07c.89,0,1.93,1,2.87-.74ZM98,147.83l.08-.35-.7-.45-.07.33Z"/><path class="cls-6" d="M2.14-25.73A47.32,47.32,0,0,1,5.51-16c.65,2.67,1.9,4.61,2.5,7.25A27,27,0,0,1,8.22,2.75c-.64,2.77-.54,5.44-.85,8.12-.15,1.33-.32,2.52-1.16,3.28s-1,2.65-1.53,4a21.92,21.92,0,0,1-6.17,9.43C-2.32,28.32-3.16,29-4,29.86c-1.66,1.7-3.5.86-5.25,1.22-2.46.5-4.27-1.95-6.24-3.65-.83-.72-1.71-.11-2.5-.73-2.45-1.94-4.15-5.26-5.61-9-2.05-5.2-3.72-10.66-3-17.22a59.49,59.49,0,0,1,4-16c2.55-6.43,6.54-9.1,10-13.18C-8.24-33.84.23-29.86,2.14-25.73ZM-2.48-6.88a7.55,7.55,0,0,1-.65-3.18c-1.07,0-1.72.79-1.26,2.46A1.21,1.21,0,0,0-2.48-6.88ZM.74-20.35A6.94,6.94,0,0,0-.48-23.77C-.64-21.56-.64-21.56.74-20.35ZM-9.64-29c-.76-.84-2.36-.25-3.06,1Zm-.12-1.07c.9,0,1.93,1,2.88-.74Zm7.68,7.14.08-.35-.69-.45-.07.33Z"/><path class="cls-6" d="M2.14,145a47.32,47.32,0,0,1,3.37,9.69c.65,2.67,1.9,4.61,2.5,7.25a27,27,0,0,1,.21,11.54c-.64,2.77-.54,5.44-.85,8.12-.15,1.33-.32,2.52-1.16,3.28s-1,2.65-1.53,4a21.92,21.92,0,0,1-6.17,9.43c-.83.73-1.67,1.45-2.47,2.27-1.66,1.7-3.5.86-5.25,1.22-2.46.5-4.27-2-6.24-3.65-.83-.72-1.71-.11-2.5-.73-2.45-1.94-4.15-5.26-5.61-9-2.05-5.2-3.72-10.66-3-17.22a59.49,59.49,0,0,1,4-16.05c2.55-6.43,6.54-9.1,10-13.18C-8.24,136.91.23,140.89,2.14,145Zm-4.62,18.85a7.55,7.55,0,0,1-.65-3.18c-1.07,0-1.72.79-1.26,2.46A1.21,1.21,0,0,0-2.48,163.87ZM.74,150.4A6.94,6.94,0,0,0-.48,147C-.64,149.19-.64,149.19.74,150.4Zm-10.38-8.64c-.76-.84-2.36-.25-3.06,1Zm-.12-1.07c.9,0,1.93,1,2.88-.74Zm7.68,7.14.08-.35-.69-.45-.07.33Z"/><path d="M68.62,55.06c-.44-.18-1-.29-.92-1.49.12-1.58.89-1.87,1.61-2,.48-.1.86.66.73,1.38C69.86,54,69.62,55.3,68.62,55.06Z"/><path d="M62.65,57.56A1.47,1.47,0,0,1,61.8,56c.07-.84.3-1.78.93-1.58A1.42,1.42,0,0,1,64,56C63.91,57.1,63.11,57.09,62.65,57.56Z"/><path d="M66.65,37.87c-.17.74-.68,1.4-1.38,1.36-.52,0-.67-.8-.61-1.6.11-1.31.65-1.74,1.33-1.62C66.44,36.08,66.82,36.44,66.65,37.87Z"/><path d="M71.06,46.37c.44-2,1.24-2.28,2.2-1.72a1.19,1.19,0,0,1,.23,1.47C72.79,47.37,72,47,71.06,46.37Z"/><path d="M65.91,52.9c-.84.77-1.54.85-2-.74a1.41,1.41,0,0,1,.5-1.71C65.47,50.08,65.82,51.23,65.91,52.9Z"/><path d="M74.63,39.06c.3.48,1.18-.17,1,1.23-.2,1.56-1.13,1-1.74,1.31-.39.18-.51-.5-.41-1.07C73.64,39.6,73.88,38.78,74.63,39.06Z"/><path d="M63.23,39.17c-.79,1.27-1.55,1.73-2.34.59a1.24,1.24,0,0,1,.2-1.49C62,37.28,62.58,38,63.23,39.17Z"/><path d="M68.85,40.7c.45-1.32.83-2.62,1.83-2.17.47.22.45,1.11.23,1.66C70.42,41.46,69.75,41.79,68.85,40.7Z"/><path d="M62.37,46.21c-.54-.06-1-.15-.89-1.08.12-1.23.75-1.38,1.33-1.46s.81.45.77,1.15C63.5,46.14,62.77,46,62.37,46.21Z"/><path d="M68.72,45.8c-.58,1.3-1,2.37-2,1.58-.45-.4-.37-1-.11-1.65C67.29,44.15,67.92,45.12,68.72,45.8Z"/><path d="M76.56,43.54c.26,1.36.78,2.26-.12,2.86-.54.37-1.26.43-1.37-.61C74.86,44,76.08,44.78,76.56,43.54Z"/><path d="M59.8,52.47c-.37-.2-.85-.21-.78-1.13,0-.76.38-1.54.81-1.4a1.3,1.3,0,0,1,.93,1.42A1.1,1.1,0,0,1,59.8,52.47Z"/><path d="M58.38,45.43c-.13.88-.46,1.47-1,1.47-.34,0-.66-.32-.53-1,.15-.83.42-1.63,1-1.61C58.21,44.31,58.39,44.73,58.38,45.43Z"/><path d="M55.55,54.34c.45-1.24.82-2.14,1.55-1.5.38.34.23,1,0,1.54C56.62,55.7,56.18,54.61,55.55,54.34Z"/><path d="M72.52,52.84c.3-.76.38-1.89,1.09-1.61.41.17.4.85.18,1.44C73.44,53.64,73,53.58,72.52,52.84Z"/><path class="cls-9" d="M21,84a1,1,0,0,1,.05.62,47,47,0,0,1-1.13,7.69,5.2,5.2,0,0,1-.53,1.31c-.19.34-.38.23-.42-.25A6.79,6.79,0,0,1,19,91.7a39.33,39.33,0,0,1,.88-5c.26-.86.63-1.61.87-2.5C20.82,84.09,20.9,84,21,84Z"/><path class="cls-9" d="M8.92,99.19c.17-.65.32-1.32.53-1.93.37-1.08.7-2.21,1.14-3.23.57-1.28,1.1-2.61,1.72-3.82.21-.41.19-1,.51-1.42a6.5,6.5,0,0,1-.21,1.93A20.62,20.62,0,0,1,9.9,97.79,5.56,5.56,0,0,1,8.92,99.19Z"/><path class="cls-9" d="M13.12,96.69a1.84,1.84,0,0,1-.18,1,24.25,24.25,0,0,1-2.87,5.74l-.17.24c-.13.18-.25.24-.4,0a.65.65,0,0,1,0-.66l.45-1a26.45,26.45,0,0,1,2-4A4.73,4.73,0,0,1,13.12,96.69Z"/><path class="cls-9" d="M10.24,109a1.86,1.86,0,0,1,.24-1.26c.5-1.13,1.11-2.1,1.58-3.28a48.11,48.11,0,0,0,2-4.82,1.51,1.51,0,0,1,.35-.69c.18,0,.21.23.17.48-.09.43-.21.81-.33,1.21a17.48,17.48,0,0,1-2,4.66c-.59.88-1,2-1.54,3C10.64,108.54,10.53,108.9,10.24,109Z"/><path class="cls-9" d="M15.83,104.83a2.67,2.67,0,0,1,.08,1.68,10.18,10.18,0,0,1-1.11,2.81A8.54,8.54,0,0,1,12.88,112a1.28,1.28,0,0,1,0-1.05,12.87,12.87,0,0,1,1.15-2.54A10.73,10.73,0,0,0,15.83,104.83Z"/><path class="cls-9" d="M14.54,92.18c-.25-.16-.25-.51-.21-.86s.12-.92.21-1.37c.27-1.45.48-2.92.7-4.39a11.75,11.75,0,0,1,.64-2.43C16.26,84.34,15.29,90.71,14.54,92.18Z"/><path class="cls-9" d="M16.41,91.78c0,2.48-.28,4.67-1.44,6.24C14.55,96.92,15.37,93.16,16.41,91.78Z"/><path class="cls-9" d="M19.1,95.52a31.91,31.91,0,0,1-2.51,8.13.92.92,0,0,1,0-.76A46.55,46.55,0,0,1,18,98.38c.28-.76.42-1.61.69-2.36C18.74,95.82,18.78,95.56,19.1,95.52Z"/><path class="cls-9" d="M11.9,113.4c-.79,2-2,3.14-3,4.79a1.24,1.24,0,0,1,.14-1.1,12.42,12.42,0,0,1,1.56-2.4l.72-.88C11.45,113.62,11.59,113.34,11.9,113.4Z"/><path class="cls-9" d="M7.24,104.54c-.4-.64-.4-.73-.16-1.33s.49-1.33.74-2c.09-.23.17-.55.38-.39s.19.51.14.82A8,8,0,0,1,7.24,104.54Z"/><path class="cls-9" d="M7.63,114.15a15.07,15.07,0,0,1,2.49-4.74A13.47,13.47,0,0,1,7.63,114.15Z"/><path class="cls-9" d="M17.51,88.14c0,.59-.06,1-.08,1.51C17,89.18,17,88.81,17.51,88.14Z"/><path class="cls-10" d="M28.92,173.62c-1.77-2-2.07-4.49-1.82-7.66.3-3.77,1.6-6.55,2.62-9.59.48-1.44,1.28-2.67,1.89-4.06,1.07-2.46,2.24-4.79,3.4-7.12,1.41-2.82,3.09-4.8,5.2-5.69.86-.36,1.88.91,2.63,2.78,1.95,4.82,3.25,10.2,4.75,15.41.54,1.85,1.35,3.43,1.4,5.68,0,2-.67,4.34-1.75,5.1-.8.57-1.56,1.58-2.38,1.72a19.57,19.57,0,0,0-5,1.52,37.8,37.8,0,0,1-8.43,3A3.16,3.16,0,0,1,28.92,173.62Z"/><path class="cls-10" d="M28.92,2.87C27.15.92,26.85-1.62,27.1-4.79c.3-3.77,1.6-6.55,2.62-9.59C30.2-15.82,31-17,31.61-18.44c1.07-2.46,2.24-4.79,3.4-7.12,1.41-2.82,3.09-4.8,5.2-5.69.86-.36,1.88.91,2.63,2.78,1.95,4.82,3.25,10.2,4.75,15.41.54,1.85,1.35,3.43,1.4,5.68,0,2-.67,4.34-1.75,5.1-.8.57-1.56,1.58-2.38,1.72a19.57,19.57,0,0,0-5,1.52,37.8,37.8,0,0,1-8.43,3A3.16,3.16,0,0,1,28.92,2.87Z"/><path class="cls-4" d="M52.22,16.78c1.6.17,2.57,2.32,3.54,4.41a2.43,2.43,0,0,1-.64,3c-3.19,1.47-6.41,3.59-9.67.15-.92-1-.84-1.82-.28-3C47,17.72,49.25,16.09,52.22,16.78Z"/><path class="cls-4" d="M48.59,13.86c0-1.59,3.39-5,4.07-4.3a.87.87,0,0,1,.07,1.14c-.92,1.38-1.83,2.77-2.74,4.15-.21.33-.37.91-.75.35S48.45,14.64,48.59,13.86Z"/></g></g></svg>