<svg id="Capa_1" data-name="Capa 1" xmlns="http://www.w3.org/2000/svg" xmlns:xlink="http://www.w3.org/1999/xlink" viewBox="0 0 681.78 784.59"><defs><style>.cls-1{fill:url(#Degradado_sin_nombre_27);}.cls-2{fill:url(#Degradado_sin_nombre_27-2);}.cls-3{fill:url(#Degradado_sin_nombre_27-3);}.cls-4{fill:url(#Degradado_sin_nombre_27-4);}.cls-5{fill:url(#Degradado_sin_nombre_27-5);}.cls-6{fill:url(#Degradado_sin_nombre_27-6);}.cls-7{fill:url(#Degradado_sin_nombre_27-7);}.cls-8{fill:url(#Degradado_sin_nombre_27-8);}.cls-9{fill:url(#Degradado_sin_nombre_27-9);}.cls-10{fill:url(#Degradado_sin_nombre_27-10);}.cls-11{fill:url(#Degradado_sin_nombre_27-11);}.cls-12{fill:url(#Degradado_sin_nombre_27-12);}.cls-13{fill:url(#Degradado_sin_nombre_27-13);}.cls-14{fill:url(#Degradado_sin_nombre_27-14);}.cls-15{fill:url(#Degradado_sin_nombre_27-15);}</style><linearGradient id="Degradado_sin_nombre_27" x1="163.66" y1="183.89" x2="662.28" y2="183.89" gradientUnits="userSpaceOnUse"><stop offset="0" stop-color="#59b5a3"/><stop offset="1" stop-color="#214593"/></linearGradient><linearGradient id="Degradado_sin_nombre_27-2" x1="64.94" y1="121.55" x2="633.1" y2="121.55" xlink:href="#Degradado_sin_nombre_27"/><linearGradient id="Degradado_sin_nombre_27-3" x1="115.5" y1="73.79" x2="592.89" y2="73.79" xlink:href="#Degradado_sin_nombre_27"/><linearGradient id="Degradado_sin_nombre_27-4" x1="235.47" y1="29.35" x2="525.95" y2="29.35" xlink:href="#Degradado_sin_nombre_27"/><linearGradient id="Degradado_sin_nombre_27-5" x1="110.91" y1="285.72" x2="696.27" y2="285.72" xlink:href="#Degradado_sin_nombre_27"/><linearGradient id="Degradado_sin_nombre_27-6" x1="230.86" y1="241.25" x2="684.84" y2="241.25" xlink:href="#Degradado_sin_nombre_27"/><linearGradient id="Degradado_sin_nombre_27-7" x1="156.89" y1="501.53" x2="703.55" y2="501.53" xlink:href="#Degradado_sin_nombre_27"/><linearGradient id="Degradado_sin_nombre_27-8" x1="58.21" y1="439.16" x2="739.99" y2="439.16" xlink:href="#Degradado_sin_nombre_27"/><linearGradient id="Degradado_sin_nombre_27-9" x1="108.7" y1="391.41" x2="716.98" y2="391.41" xlink:href="#Degradado_sin_nombre_27"/><linearGradient id="Degradado_sin_nombre_27-10" x1="228.64" y1="346.98" x2="687.09" y2="346.98" xlink:href="#Degradado_sin_nombre_27"/><linearGradient id="Degradado_sin_nombre_27-11" x1="154.22" y1="607.53" x2="692.31" y2="607.53" xlink:href="#Degradado_sin_nombre_27"/><linearGradient id="Degradado_sin_nombre_27-12" x1="224.1" y1="558.87" x2="704.58" y2="558.87" xlink:href="#Degradado_sin_nombre_27"/><linearGradient id="Degradado_sin_nombre_27-13" x1="150.66" y1="766.83" x2="527.32" y2="766.83" xlink:href="#Degradado_sin_nombre_27"/><linearGradient id="Degradado_sin_nombre_27-14" x1="161.04" y1="712.09" x2="571.59" y2="712.09" xlink:href="#Degradado_sin_nombre_27"/><linearGradient id="Degradado_sin_nombre_27-15" x1="221.97" y1="663.49" x2="702.84" y2="663.49" xlink:href="#Degradado_sin_nombre_27"/></defs><path class="cls-1" d="M648.72,176.67c-86.06,5.62-189.47,6.48-307.1.52-.16,8.07-.42,18.9-.52,26.91,108.89,6,222.86,5.43,321.18-1.68C658,193.72,653.52,185.07,648.72,176.67ZM278,199.58c12,1,24.26,2,36.69,2.83.16-8,.42-18.83.57-26.8-12.41-1-24.61-1.9-36.66-2.91C278.43,180.76,278.17,191.53,278,199.58Zm-59.34-5.92c11.19,1.3,22.71,2.49,34.42,3.64.19-8.05.37-18.79.57-26.92-11.73-1.07-23.21-2.31-34.42-3.65C219.05,174.85,218.74,185.56,218.64,193.66Zm-55-7.12q15.47,2.19,31.84,4.28c.16-8.07.33-18.77.57-26.91-10.91-1.32-21.51-2.85-31.82-4.33C164.1,167.66,163.86,178.39,163.66,186.54Z" transform="translate(-58.21 -9.35)"/><path class="cls-2" d="M614.48,125.73c-118,5.88-258.18,2.9-401.28-12.79-.21,8.07-.42,18.82-.57,26.89,134,15.88,288.9,19.41,420.47,11.69C627.25,142.67,621,134.1,614.48,125.73Zm-456.39,6.74c10.23,1.56,20.67,3,31.53,4.46.15-8.05.44-18.84.51-26.86-10.74-1.42-21.24-2.9-31.44-4.49C158.52,113.66,158.29,124.37,158.09,132.47ZM108.7,124c9.13,1.75,18.66,3.51,28.46,5.08.15-8.05.41-18.84.59-26.86-9.87-1.61-19.3-3.33-28.47-5.11C109.12,105.2,109,115.87,108.7,124Zm-43.76-9.47c8,2,16.41,3.87,25.06,5.65.15-8,.41-18.83.59-26.86l-25-5.67C65.39,95.72,65.11,106.4,64.94,114.53Z" transform="translate(-58.21 -9.35)"/><path class="cls-3" d="M585.12,92A222.09,222.09,0,0,0,565.4,74.63a2587.34,2587.34,0,0,1-285-7.93c-.18,8.1-.42,18.82-.57,26.94,114,8.83,220.53,10.51,313,6.94C590.25,97.74,587.88,94.73,585.12,92ZM220.56,87.65c11.24,1.26,22.71,2.54,34.37,3.71.21-8.12.41-18.87.6-26.92-11.74-1.09-23.19-2.36-34.44-3.71C220.94,68.87,220.73,79.6,220.56,87.65Zm-55-7.2c10.23,1.48,20.85,3,31.76,4.41.1-8.09.39-18.86.52-26.93l-31.72-4.34C165.93,61.64,165.68,72.43,165.58,80.45ZM115.5,72.12c9.35,1.76,18.91,3.42,28.83,5.09.15-8.14.39-18.88.6-26.91-9.9-1.66-19.57-3.29-28.87-5C115.91,53.32,115.7,64.05,115.5,72.12Z" transform="translate(-58.21 -9.35)"/><path class="cls-4" d="M456.51,22.18c-9.71-.09-19.55-.25-29.55-.42-.21,8-.47,18.8-.6,26.83,33.21.79,66.61,1,99.59.53C504.24,37.8,481,29.24,456.51,22.18ZM359.57,46c12.77.65,25.83,1.23,38.94,1.79.15-8.15.39-18.89.65-27-13.18-.49-26.22-1.12-39-1.73C359.93,27.2,359.81,37.91,359.57,46Zm-63.91-4.19c12.2,1,24.56,1.8,37.2,2.56.16-8,.41-18.79.57-26.9-12.61-.71-25-1.63-37.15-2.53C296.12,23,295.86,33.76,295.66,41.85ZM235.47,36.2c11.45,1.18,23.14,2.42,35,3.48.18-8.1.39-18.81.57-26.83l-34.95-3.5C235.91,17.42,235.68,28.12,235.47,36.2Z" transform="translate(-58.21 -9.35)"/><path class="cls-5" d="M695.83,292.42c-.81-4.59-2.07-9-3.19-13.49-112.23,10.47-257,12-416.8-.39-.14,8.16-.39,18.88-.62,26.95,141,11.87,296.22,11.58,419.9-.07A28.44,28.44,0,0,0,695.83,292.42Zm-479.92,7.16c11.27,1.25,22.72,2.46,34.48,3.59.17-8,.34-18.74.55-26.86-11.71-1.15-23.24-2.33-34.43-3.64C216.3,280.69,216.15,291.47,215.91,299.58Zm-55-7.19q15.57,2.21,31.83,4.36c.19-8.1.37-18.87.57-27-10.9-1.31-21.47-2.82-31.78-4.3C161.4,273.49,161.14,284.23,160.89,292.39Zm-50-8.38c9.25,1.72,18.89,3.37,28.86,5,.16-8,.36-18.78.52-26.88-9.87-1.65-19.54-3.3-28.79-5C111.35,265.15,111.17,276,110.91,284Z" transform="translate(-58.21 -9.35)"/><path class="cls-6" d="M674.27,227.43c-70.11,5.57-154.2,8.07-251.95,6.22-.16,8.09-.37,18.78-.63,26.83,90.66,2.18,182.76-.15,263.15-7.1C681.63,244.63,678.13,236,674.27,227.43ZM354.93,257.87c12.86.68,25.86,1.31,38.91,1.73.24-8.05.47-18.79.68-26.92-13.14-.39-26.15-1-39-1.67C355.32,239,355.14,249.83,354.93,257.87Zm-63.83-4.21c12.23,1,24.56,1.93,37.2,2.68.16-8.12.39-18.81.52-26.91q-18.85-1.12-37.13-2.6C291.46,234.86,291.28,245.6,291.1,253.66Zm-60.24-5.59c11.4,1.27,23.16,2.41,35,3.48.1-8.05.42-18.81.57-26.88-11.81-1-23.52-2.22-35-3.43C231.27,229.28,231.07,240,230.86,248.07Z" transform="translate(-58.21 -9.35)"/><path class="cls-7" d="M703.21,515.43c-3.66-5.34-7.23-11.08-9.27-17.18a14.7,14.7,0,0,1-.65-8c-95,9.1-216.37,11.8-358.41,4.58-.18,8.05-.42,18.81-.59,26.92,127.18,7,261.25,5.13,369.26-5.75C703.41,515.82,703.34,515.62,703.21,515.43Zm-432,1.77c12.07,1,24.32,1.94,36.68,2.9.21-8.11.44-18.83.6-27-12.41-.75-24.68-1.8-36.74-2.78C271.64,498.42,271.41,509.12,271.2,517.2Zm-59.35-5.91c11.24,1.28,22.7,2.52,34.45,3.63.19-8.11.36-18.78.5-26.91-11.63-1.12-23.14-2.31-34.41-3.61C212.24,492.46,212,503.24,211.85,511.29Zm-55-7.22c10.24,1.53,20.92,3,31.8,4.41.2-8.07.41-18.81.62-26.89-11-1.41-21.54-2.79-31.87-4.41C157.28,485.2,157.05,496.05,156.89,504.07Z" transform="translate(-58.21 -9.35)"/><path class="cls-8" d="M735.52,435.1c-.47-.81-1-1.55-1.52-2.34-135.74,16.95-328.86,19.59-527.62-2.21-.13,8.08-.42,18.85-.59,26.83C380.46,478.11,590.62,477.9,738.32,459,741.11,452.05,740.54,443.71,735.52,435.1Zm-584.24,15c10.23,1.6,20.71,3.08,31.52,4.48.18-8,.42-18.84.6-26.92-10.75-1.36-21.27-2.84-31.48-4.46C151.74,431.31,151.48,442.07,151.28,450.09Zm-49.36-8.47c9.2,1.73,18.66,3.5,28.47,5.14.16-8.13.42-18.82.55-26.91-9.8-1.66-19.23-3.38-28.4-5.05C102.37,422.8,102.13,433.55,101.92,441.62Zm-43.71-9.48c8,2,16.36,3.93,25.06,5.75.07-8.15.33-18.85.54-26.93l-25-5.69C58.63,413.37,58.37,424.11,58.21,432.14Z" transform="translate(-58.21 -9.35)"/><path class="cls-9" d="M708.16,396c-2.49-4.05-4.76-8.25-7.14-12.36-125.15,12.42-284.14,12.94-427.33.69-.21,8-.47,18.87-.63,26.92,172.78,13.35,328.21,10.35,443.92-2.51C713.89,404.59,710.88,400.38,708.16,396Zm-494.43,9.26q16.89,2,34.46,3.68c.16-8.07.36-18.81.55-26.83-11.76-1.2-23.19-2.46-34.38-3.74C214.17,386.46,213.89,397.28,213.73,405.27Zm-55-7.26c10.31,1.63,20.95,3,31.78,4.45.21-8,.37-18.78.57-26.88l-31.78-4.36C159.15,379.28,158.89,390,158.74,398Zm-50-8.32c9.34,1.77,18.92,3.47,28.87,5.15.15-8.08.36-18.86.51-27-9.89-1.56-19.47-3.24-28.78-4.95C109.12,370.93,108.91,381.7,108.7,389.69Z" transform="translate(-58.21 -9.35)"/><path class="cls-10" d="M678.47,342.52c-1.33-2.54-.67-6.8.58-9.86-71.44,5.94-157.92,8.63-258.91,6.7-.15,8.11-.39,18.88-.6,26.91,92.32,2.18,186.13-.3,267.55-7.55C684.22,353.31,681.3,347.93,678.47,342.52ZM352.8,363.58c12.83.76,25.76,1.33,38.89,1.78.21-8,.5-18.88.63-26.87-13.13-.49-26.09-1.05-38.95-1.69C353.14,344.83,353,355.57,352.8,363.58Zm-63.93-4.08q18.27,1.38,37.23,2.59c.18-8.08.38-18.8.54-26.92q-18.84-1.12-37.15-2.61C289.31,340.57,289.05,351.4,288.87,359.5Zm-60.23-5.65c11.47,1.2,23.18,2.36,35,3.47.2-8.07.49-18.87.59-26.89l-34.92-3.49C229.12,335,228.84,345.78,228.64,353.85Z" transform="translate(-58.21 -9.35)"/><path class="cls-11" d="M689.71,616.8c-4.1-9-4.22-12.62,2.1-20.47.1-.12.2-.28.31-.41-113.09,11-260.19,12.93-423,.29-.2,8-.44,18.82-.59,26.79,142.44,12.06,299.55,11.68,423.83-.33C691.45,620.72,690.58,618.75,689.71,616.8Zm-480.53.37q16.86,1.94,34.37,3.65c.19-8,.45-18.74.6-26.89-11.77-1.16-23.21-2.37-34.45-3.62C209.59,598.36,209.33,609.08,209.18,617.17Zm-55-7.12c10.3,1.53,21,2.92,31.82,4.18.18-8,.23-18.8.38-26.88q-16.29-2-31.75-4.15C154.56,591.27,154.3,602,154.22,610.05Z" transform="translate(-58.21 -9.35)"/><path class="cls-12" d="M704.58,541.72c-76.82,7.87-173.37,11.75-289,9.54-.15,8-.44,18.78-.65,26.89,98.53,2.32,198.76-.63,283.82-9.06a22.41,22.41,0,0,0-2.25-3.8c-2.78-3.56-5.76-7-8.77-10.62,3.63-2.23,7.24-4.18,10.47-6.63A30,30,0,0,0,704.58,541.72ZM348.2,575.5c12.77.68,25.78,1.21,38.91,1.75.13-8,.36-18.81.6-26.94-13.14-.41-26.12-1-39-1.7C348.58,556.75,348.35,567.45,348.2,575.5Zm-63.92-4.19c12.2,1,24.56,1.86,37.21,2.68.13-8.08.39-18.83.59-26.86-12.59-.86-24.95-1.75-37.15-2.73C284.75,552.57,284.47,563.26,284.28,571.31Zm-60.18-5.6c11.4,1.27,23.08,2.41,35,3.49.21-8,.37-18.86.55-26.92-11.84-1-23.55-2.18-34.93-3.46C224.52,546.88,224.25,557.64,224.1,565.71Z" transform="translate(-58.21 -9.35)"/><path class="cls-13" d="M150.66,793.94h2c-.64-.1-1.31-.18-1.93-.28A1.32,1.32,0,0,1,150.66,793.94Zm58-46.88c-.13,8-.36,18.82-.49,26.82,99.15,11.77,209.72,16.78,313.84,15.47a178.68,178.68,0,0,1,5.34-27A2641.93,2641.93,0,0,1,208.63,747.06Zm-55,19.57c10.21,1.53,20.65,3,31.48,4.38.18-8,.36-18.8.57-26.84-10.8-1.43-21.35-2.94-31.5-4.45C154,747.79,153.77,758.52,153.63,766.63Z" transform="translate(-58.21 -9.35)"/><path class="cls-14" d="M276,700.81c-.24,8.08-.44,18.87-.65,26.93C369.22,735,457.92,737.4,538,736.07a76.44,76.44,0,0,1,17.27-20.17,36.73,36.73,0,0,1,16.34-7.43A2575.77,2575.77,0,0,1,276,700.81Zm-59.92,21q16.78,1.85,34.38,3.61c.23-8.05.44-18.83.59-26.91-11.76-1.07-23.26-2.35-34.43-3.61C216.43,703,216.27,713.68,216.07,721.84Zm-55-7.26c10.28,1.57,20.91,3,31.73,4.43.24-8.1.45-18.83.62-27l-31.78-4.29C161.46,695.78,161.2,706.51,161,714.58Z" transform="translate(-58.21 -9.35)"/><path class="cls-15" d="M701.45,647.89c-.13-.48-.29-.95-.42-1.42-76.58,7.78-172.68,11.6-287.63,9.42-.15,8.06-.41,18.84-.56,26.85,99.61,2.39,201-.66,286.66-9.33C703.13,666.56,703.84,658.16,701.45,647.89Zm-355.4,32.27c12.76.69,25.78,1.23,38.93,1.71.14-8.07.42-18.77.62-26.87-13.18-.45-26.16-1.06-39-1.75C346.4,661.33,346.17,672,346.05,680.16ZM282.15,676c12.22,1,24.54,1.8,37.14,2.64.2-8.05.48-18.8.64-26.88q-19-1.23-37.2-2.65C282.63,657.11,282.32,667.88,282.15,676ZM222,670.28c11.38,1.27,23.06,2.38,35,3.54.15-8.13.35-18.87.56-26.86l-35-3.51C222.31,651.46,222.13,662.29,222,670.28Z" transform="translate(-58.21 -9.35)"/></svg>