<?xml version="1.0" encoding="utf-8"?>
<!-- Generator: Adobe Illustrator 22.0.1, SVG Export Plug-In . SVG Version: 6.00 Build 0)  -->
<svg version="1.1" id="Capa_1" xmlns="http://www.w3.org/2000/svg" xmlns:xlink="http://www.w3.org/1999/xlink" x="0px" y="0px"
	 viewBox="0 0 183 32" style="enable-background:new 0 0 183 32;" xml:space="preserve">
<style type="text/css">
	.st0{display:none;opacity:0.14;}
	.st1{display:inline;}
	.st2{fill:#5A3617;}
	.st3{fill:#AF7676;}
	.st4{fill:#F8F2F2;}
	.st5{fill:none;stroke:#070308;stroke-linecap:round;stroke-linejoin:round;stroke-opacity:0.502;}
	.st6{fill:url(#SVGID_1_);}
	.st7{fill:#070308;}
	.st8{fill:#EEEEED;}
	.st9{fill:#9F7820;}
	.st10{fill:#E1B3AC;}
	.st11{fill:#D69288;}
	.st12{fill:#B26967;}
	.st13{fill:#FFFFFF;}
	.st14{fill:#381B13;}
	.st15{fill:url(#SVGID_2_);}
	.st16{fill:#68777B;}
	.st17{fill:#201D1D;}
	.st18{fill:#BE7C74;}
	.st19{fill:#452A25;}
	.st20{fill:#A4423B;}
	.st21{fill:#CA6159;}
	.st22{fill:#D89390;}
	.st23{fill:url(#SVGID_3_);}
	.st24{fill:url(#SVGID_4_);}
	.st25{fill:url(#SVGID_5_);}
	.st26{fill:url(#SVGID_6_);}
	.st27{fill:url(#SVGID_7_);}
	.st28{fill:url(#SVGID_8_);}
	.st29{fill:url(#SVGID_9_);}
	.st30{fill:url(#SVGID_10_);}
	.st31{fill:url(#SVGID_11_);}
	.st32{fill:url(#SVGID_12_);}
	.st33{fill:url(#SVGID_13_);}
	.st34{fill:#331E10;}
	.st35{fill:url(#SVGID_14_);}
	.st36{fill:url(#SVGID_15_);}
	.st37{fill:url(#SVGID_16_);}
	.st38{fill:url(#SVGID_17_);}
	.st39{fill:url(#SVGID_18_);}
	.st40{fill:url(#SVGID_19_);}
	.st41{fill:url(#SVGID_20_);}
	.st42{fill:url(#SVGID_21_);}
	.st43{fill:url(#SVGID_22_);}
	.st44{fill:url(#SVGID_23_);}
	.st45{fill:url(#SVGID_24_);}
	.st46{fill:url(#SVGID_25_);}
	.st47{fill:url(#SVGID_26_);}
	.st48{fill:url(#SVGID_27_);}
	.st49{fill:url(#SVGID_28_);}
	.st50{fill:url(#SVGID_29_);}
	.st51{fill:url(#SVGID_30_);}
	.st52{fill:url(#SVGID_31_);}
	.st53{fill:url(#SVGID_32_);}
	.st54{fill:url(#SVGID_33_);}
	.st55{fill:url(#SVGID_34_);}
	.st56{fill:url(#SVGID_35_);}
	.st57{fill:url(#SVGID_36_);}
	.st58{fill:url(#SVGID_37_);}
	.st59{fill:url(#SVGID_38_);}
	.st60{fill:url(#SVGID_39_);}
	.st61{fill:url(#SVGID_40_);}
	.st62{fill:url(#SVGID_41_);}
	.st63{fill:url(#SVGID_42_);}
	.st64{fill:url(#SVGID_43_);}
	.st65{fill:url(#SVGID_44_);}
	.st66{fill:url(#SVGID_45_);}
	.st67{filter:url(#Adobe_OpacityMaskFilter);}
	.st68{filter:url(#Adobe_OpacityMaskFilter_1_);}
	.st69{mask:url(#SVGID_46_);fill:url(#SVGID_47_);}
	.st70{fill:url(#SVGID_48_);}
	.st71{fill:url(#SVGID_49_);}
	.st72{fill:url(#SVGID_50_);}
	.st73{fill:url(#SVGID_51_);}
	.st74{fill:url(#SVGID_52_);}
	.st75{fill:url(#SVGID_53_);}
	.st76{fill:url(#SVGID_54_);}
	.st77{fill:url(#SVGID_55_);}
	.st78{fill:url(#SVGID_56_);}
	.st79{filter:url(#Adobe_OpacityMaskFilter_2_);}
	.st80{filter:url(#Adobe_OpacityMaskFilter_3_);}
	.st81{mask:url(#SVGID_57_);fill:url(#SVGID_58_);}
	.st82{fill:url(#SVGID_59_);}
	.st83{fill:#E9DCA5;fill-opacity:0.2392;}
	.st84{fill:#2B0E0D;fill-opacity:0.298;}
	.st85{filter:url(#Adobe_OpacityMaskFilter_4_);}
	.st86{filter:url(#Adobe_OpacityMaskFilter_5_);}
	.st87{mask:url(#SVGID_60_);fill:url(#SVGID_61_);}
	.st88{fill:url(#SVGID_62_);}
	.st89{filter:url(#Adobe_OpacityMaskFilter_6_);}
	.st90{filter:url(#Adobe_OpacityMaskFilter_7_);}
	.st91{mask:url(#SVGID_63_);fill:url(#SVGID_64_);}
	.st92{fill:url(#SVGID_65_);}
	.st93{filter:url(#Adobe_OpacityMaskFilter_8_);}
	.st94{filter:url(#Adobe_OpacityMaskFilter_9_);}
	.st95{mask:url(#SVGID_66_);fill:url(#SVGID_67_);}
	.st96{fill:url(#SVGID_68_);}
	.st97{filter:url(#Adobe_OpacityMaskFilter_10_);}
	.st98{filter:url(#Adobe_OpacityMaskFilter_11_);}
	.st99{mask:url(#SVGID_69_);fill:url(#SVGID_70_);}
	.st100{fill:url(#SVGID_71_);}
	.st101{filter:url(#Adobe_OpacityMaskFilter_12_);}
	.st102{filter:url(#Adobe_OpacityMaskFilter_13_);}
	.st103{mask:url(#SVGID_72_);fill:url(#SVGID_73_);}
	.st104{fill:url(#SVGID_74_);}
	.st105{filter:url(#Adobe_OpacityMaskFilter_14_);}
	.st106{filter:url(#Adobe_OpacityMaskFilter_15_);}
	.st107{mask:url(#SVGID_75_);fill:url(#SVGID_76_);}
	.st108{fill:url(#SVGID_77_);}
	.st109{filter:url(#Adobe_OpacityMaskFilter_16_);}
	.st110{filter:url(#Adobe_OpacityMaskFilter_17_);}
	.st111{mask:url(#SVGID_78_);fill:url(#SVGID_79_);}
	.st112{fill:url(#SVGID_80_);}
	.st113{filter:url(#Adobe_OpacityMaskFilter_18_);}
	.st114{filter:url(#Adobe_OpacityMaskFilter_19_);}
	.st115{mask:url(#SVGID_81_);fill:url(#SVGID_82_);}
	.st116{fill:url(#SVGID_83_);}
	.st117{filter:url(#Adobe_OpacityMaskFilter_20_);}
	.st118{filter:url(#Adobe_OpacityMaskFilter_21_);}
	.st119{mask:url(#SVGID_84_);fill:url(#SVGID_85_);}
	.st120{fill:url(#SVGID_86_);}
	.st121{fill:none;stroke:#888773;stroke-miterlimit:10;}
	.st122{fill:#CE6C18;}
	.st123{fill:url(#SVGID_87_);}
	.st124{fill:none;stroke:#C12E31;stroke-width:8.000000e-02;stroke-miterlimit:10;}
	.st125{fill:#D07233;}
	.st126{fill:#CE6B15;}
	.st127{fill:#004684;}
	.st128{fill:#275C9C;}
	.st129{opacity:0.37;}
	.st130{fill:none;stroke:#FFFFFF;stroke-width:0.75;stroke-miterlimit:10;}
	.st131{fill:#FFFFFF;stroke:#FFFFFF;stroke-width:2;stroke-miterlimit:10;}
	.st132{fill:#F0EFEF;}
	.st133{fill:url(#SVGID_88_);}
	.st134{fill:url(#SVGID_89_);}
	.st135{fill:none;stroke:#409093;stroke-width:0.75;stroke-miterlimit:10;}
	.st136{fill:#275C9C;stroke:#265792;stroke-width:2;stroke-miterlimit:10;}
	.st137{fill:#42999C;}
	.st138{fill:url(#SVGID_90_);}
	.st139{fill:url(#SVGID_91_);}
	.st140{fill:url(#SVGID_92_);}
	.st141{fill:url(#SVGID_93_);}
	.st142{fill:url(#SVGID_94_);}
	.st143{fill:url(#SVGID_95_);}
	.st144{fill:url(#SVGID_96_);}
	.st145{fill:url(#SVGID_97_);}
	.st146{fill:url(#SVGID_98_);}
	.st147{fill:url(#SVGID_99_);}
	.st148{fill:url(#SVGID_100_);}
	.st149{fill:url(#SVGID_101_);}
	.st150{fill:url(#SVGID_102_);}
	.st151{fill:url(#SVGID_103_);}
	.st152{fill:url(#SVGID_104_);}
	.st153{fill:url(#SVGID_105_);}
	.st154{fill:url(#SVGID_106_);}
	.st155{fill:url(#SVGID_107_);}
	.st156{fill:url(#SVGID_108_);}
	.st157{fill:url(#SVGID_109_);}
	.st158{fill:url(#SVGID_110_);}
	.st159{fill:url(#SVGID_111_);}
	.st160{fill:url(#SVGID_112_);}
	.st161{fill:url(#SVGID_113_);}
	.st162{fill:url(#SVGID_114_);}
	.st163{fill:url(#SVGID_115_);}
	.st164{fill:url(#SVGID_116_);}
	.st165{fill:url(#SVGID_117_);}
	.st166{fill:url(#SVGID_118_);}
	.st167{fill:url(#SVGID_119_);}
	.st168{fill:url(#SVGID_120_);}
	.st169{fill:url(#SVGID_121_);}
	.st170{fill:url(#SVGID_122_);}
	.st171{fill:url(#SVGID_123_);}
	.st172{fill:url(#SVGID_124_);}
	.st173{fill:url(#SVGID_125_);}
	.st174{fill:url(#SVGID_126_);}
	.st175{fill:url(#SVGID_127_);}
	.st176{fill:url(#SVGID_128_);}
	.st177{fill:url(#SVGID_129_);}
	.st178{fill:url(#SVGID_130_);}
	.st179{fill:url(#SVGID_131_);}
	.st180{fill:url(#SVGID_132_);}
	.st181{fill:url(#SVGID_133_);}
	.st182{fill:url(#SVGID_134_);}
</style>
<g>
	<g>
		<linearGradient id="SVGID_1_" gradientUnits="userSpaceOnUse" x1="4.7076" y1="7.3147" x2="24.6838" y2="7.3147">
			<stop  offset="0" style="stop-color:#7CB4A2"/>
			<stop  offset="1" style="stop-color:#314591"/>
		</linearGradient>
		<path class="st6" d="M24.1,7c-3.4,0.2-7.6,0.3-12.3,0c0,0.3,0,0.8,0,1.1c4.4,0.2,8.9,0.2,12.9-0.1C24.5,7.7,24.3,7.4,24.1,7z
			 M9.3,7.9c0.5,0,1,0.1,1.5,0.1c0-0.3,0-0.8,0-1.1c-0.5,0-1-0.1-1.5-0.1C9.3,7.2,9.3,7.6,9.3,7.9z M6.9,7.7
			c0.4,0.1,0.9,0.1,1.4,0.1c0-0.3,0-0.8,0-1.1c-0.5,0-0.9-0.1-1.4-0.1C6.9,6.9,6.9,7.4,6.9,7.7z M4.7,7.4C5.1,7.5,5.5,7.5,6,7.6
			c0-0.3,0-0.8,0-1.1C5.6,6.5,5.1,6.4,4.7,6.3C4.7,6.7,4.7,7.1,4.7,7.4z"/>
		<linearGradient id="SVGID_2_" gradientUnits="userSpaceOnUse" x1="0.7528" y1="4.7921" x2="23.515" y2="4.7921">
			<stop  offset="0" style="stop-color:#7CB4A2"/>
			<stop  offset="1" style="stop-color:#314591"/>
		</linearGradient>
		<path class="st15" d="M22.8,5C18,5.2,12.4,5.1,6.7,4.4c0,0.3,0,0.8,0,1.1C12,6.2,18.2,6.3,23.5,6C23.3,5.6,23,5.3,22.8,5z
			 M4.5,5.2c0.4,0.1,0.8,0.1,1.3,0.2c0-0.3,0-0.8,0-1.1C5.3,4.3,4.9,4.2,4.5,4.1C4.5,4.5,4.5,4.9,4.5,5.2z M2.5,4.9
			C2.9,5,3.3,5,3.6,5.1c0-0.3,0-0.8,0-1.1C3.3,3.9,2.9,3.9,2.5,3.8C2.5,4.1,2.5,4.6,2.5,4.9z M0.8,4.5c0.3,0.1,0.7,0.2,1,0.2
			c0-0.3,0-0.8,0-1.1l-1-0.2C0.8,3.7,0.8,4.2,0.8,4.5z"/>
		<linearGradient id="SVGID_3_" gradientUnits="userSpaceOnUse" x1="2.7782" y1="2.8594" x2="21.904" y2="2.8594">
			<stop  offset="0" style="stop-color:#7CB4A2"/>
			<stop  offset="1" style="stop-color:#314591"/>
		</linearGradient>
		<path class="st23" d="M21.6,3.6c-0.3-0.3-0.5-0.5-0.8-0.7c-3.7,0.1-7.7,0-11.4-0.3c0,0.3,0,0.8,0,1.1c4.6,0.4,8.8,0.4,12.5,0.3
			C21.8,3.8,21.7,3.7,21.6,3.6z M7,3.4c0.5,0.1,0.9,0.1,1.4,0.2c0-0.3,0-0.8,0-1.1C7.9,2.4,7.5,2.4,7,2.3C7,2.7,7,3.1,7,3.4z
			 M4.8,3.1c0.4,0.1,0.8,0.1,1.3,0.2c0-0.3,0-0.8,0-1.1L4.8,2C4.8,2.4,4.8,2.8,4.8,3.1z M2.8,2.8C3.2,2.9,3.5,2.9,3.9,3
			c0-0.3,0-0.8,0-1.1C3.6,1.8,3.2,1.8,2.8,1.7C2.8,2,2.8,2.5,2.8,2.8z"/>
		<linearGradient id="SVGID_4_" gradientUnits="userSpaceOnUse" x1="7.5847" y1="1.0614" x2="19.2221" y2="1.0614">
			<stop  offset="0" style="stop-color:#7CB4A2"/>
			<stop  offset="1" style="stop-color:#314591"/>
		</linearGradient>
		<path class="st24" d="M16.4,0.8c-0.4,0-0.8,0-1.2,0c0,0.3,0,0.8,0,1.1c1.3,0,2.7,0,4,0C18.4,1.4,17.4,1.1,16.4,0.8z M12.6,1.7
			c0.5,0,1,0,1.6,0.1c0-0.3,0-0.8,0-1.1c-0.5,0-1.1,0-1.6-0.1C12.6,1,12.6,1.4,12.6,1.7z M10,1.6c0.5,0,1,0.1,1.5,0.1
			c0-0.3,0-0.8,0-1.1c-0.5,0-1-0.1-1.5-0.1C10,0.8,10,1.2,10,1.6z M7.6,1.3C8,1.4,8.5,1.4,9,1.5c0-0.3,0-0.8,0-1.1L7.6,0.3
			C7.6,0.6,7.6,1,7.6,1.3z"/>
		<linearGradient id="SVGID_5_" gradientUnits="userSpaceOnUse" x1="2.5943" y1="11.4349" x2="26.0457" y2="11.4349">
			<stop  offset="0" style="stop-color:#7CB4A2"/>
			<stop  offset="1" style="stop-color:#314591"/>
		</linearGradient>
		<path class="st25" d="M26,11.7c0-0.2-0.1-0.4-0.1-0.5c-4.5,0.4-10.3,0.5-16.7,0c0,0.3,0,0.8,0,1.1c5.6,0.5,11.9,0.5,16.8,0
			C26,12.1,26.1,11.9,26,11.7z M6.8,12c0.5,0.1,0.9,0.1,1.4,0.1c0-0.3,0-0.8,0-1.1c-0.5,0-0.9-0.1-1.4-0.1C6.8,11.2,6.8,11.7,6.8,12
			z M4.6,11.7c0.4,0.1,0.8,0.1,1.3,0.2c0-0.3,0-0.8,0-1.1c-0.4-0.1-0.9-0.1-1.3-0.2C4.6,10.9,4.6,11.4,4.6,11.7z M2.6,11.4
			c0.4,0.1,0.8,0.1,1.2,0.2c0-0.3,0-0.8,0-1.1c-0.4-0.1-0.8-0.1-1.2-0.2C2.6,10.6,2.6,11,2.6,11.4z"/>
		<linearGradient id="SVGID_6_" gradientUnits="userSpaceOnUse" x1="7.4" y1="9.6358" x2="25.5878" y2="9.6358">
			<stop  offset="0" style="stop-color:#7CB4A2"/>
			<stop  offset="1" style="stop-color:#314591"/>
		</linearGradient>
		<path class="st26" d="M25.2,9.1C22.4,9.3,19,9.4,15.1,9.3c0,0.3,0,0.8,0,1.1c3.6,0.1,7.3,0,10.5-0.3C25.5,9.8,25.3,9.4,25.2,9.1z
			 M12.4,10.3c0.5,0,1,0.1,1.6,0.1c0-0.3,0-0.8,0-1.1c-0.5,0-1,0-1.6-0.1C12.4,9.5,12.4,10,12.4,10.3z M9.8,10.1
			c0.5,0,1,0.1,1.5,0.1c0-0.3,0-0.8,0-1.1c-0.5,0-1-0.1-1.5-0.1C9.8,9.4,9.8,9.8,9.8,10.1z M7.4,9.9C7.9,10,8.3,10,8.8,10.1
			c0-0.3,0-0.8,0-1.1c-0.5,0-0.9-0.1-1.4-0.1C7.4,9.2,7.4,9.6,7.4,9.9z"/>
		<linearGradient id="SVGID_7_" gradientUnits="userSpaceOnUse" x1="4.4365" y1="20.1679" x2="26.3373" y2="20.1679">
			<stop  offset="0" style="stop-color:#7CB4A2"/>
			<stop  offset="1" style="stop-color:#314591"/>
		</linearGradient>
		<path class="st27" d="M26.3,20.7C26.2,20.5,26,20.3,26,20c0-0.1,0-0.2,0-0.3c-3.8,0.4-8.7,0.5-14.4,0.2c0,0.3,0,0.8,0,1.1
			C16.6,21.3,22,21.2,26.3,20.7C26.3,20.7,26.3,20.7,26.3,20.7z M9,20.8c0.5,0,1,0.1,1.5,0.1c0-0.3,0-0.8,0-1.1
			c-0.5,0-1-0.1-1.5-0.1C9,20,9,20.5,9,20.8z M6.6,20.6c0.5,0.1,0.9,0.1,1.4,0.1c0-0.3,0-0.8,0-1.1c-0.5,0-0.9-0.1-1.4-0.1
			C6.7,19.8,6.6,20.2,6.6,20.6z M4.4,20.3c0.4,0.1,0.8,0.1,1.3,0.2c0-0.3,0-0.8,0-1.1c-0.4-0.1-0.9-0.1-1.3-0.2
			C4.5,19.5,4.4,19.9,4.4,20.3z"/>
		<linearGradient id="SVGID_8_" gradientUnits="userSpaceOnUse" x1="0.483" y1="17.6442" x2="27.7971" y2="17.6442">
			<stop  offset="0" style="stop-color:#7CB4A2"/>
			<stop  offset="1" style="stop-color:#314591"/>
		</linearGradient>
		<path class="st28" d="M27.6,17.5C27.6,17.4,27.6,17.4,27.6,17.5c-5.5,0.6-13.2,0.7-21.2-0.2c0,0.3,0,0.8,0,1.1
			c7,0.8,15.4,0.8,21.3,0.1C27.8,18.2,27.8,17.8,27.6,17.5z M4.2,18.1c0.4,0.1,0.8,0.1,1.3,0.2c0-0.3,0-0.8,0-1.1
			c-0.4-0.1-0.9-0.1-1.3-0.2C4.2,17.3,4.2,17.8,4.2,18.1z M2.2,17.7C2.6,17.8,3,17.9,3.4,18c0-0.3,0-0.8,0-1.1
			c-0.4-0.1-0.8-0.1-1.1-0.2C2.3,17,2.2,17.4,2.2,17.7z M0.5,17.4c0.3,0.1,0.7,0.2,1,0.2c0-0.3,0-0.8,0-1.1l-1-0.2
			C0.5,16.6,0.5,17,0.5,17.4z"/>
		<linearGradient id="SVGID_9_" gradientUnits="userSpaceOnUse" x1="2.5059" y1="15.7119" x2="26.8752" y2="15.7119">
			<stop  offset="0" style="stop-color:#7CB4A2"/>
			<stop  offset="1" style="stop-color:#314591"/>
		</linearGradient>
		<path class="st29" d="M26.5,15.9c-0.1-0.2-0.2-0.3-0.3-0.5c-5,0.5-11.4,0.5-17.1,0c0,0.3,0,0.8,0,1.1c6.9,0.5,13.1,0.4,17.8-0.1
			C26.8,16.2,26.6,16.1,26.5,15.9z M6.7,16.3c0.5,0.1,0.9,0.1,1.4,0.1c0-0.3,0-0.8,0-1.1c-0.5,0-0.9-0.1-1.4-0.2
			C6.7,15.5,6.7,15.9,6.7,16.3z M4.5,16c0.4,0.1,0.8,0.1,1.3,0.2c0-0.3,0-0.8,0-1.1l-1.3-0.2C4.5,15.2,4.5,15.7,4.5,16z M2.5,15.6
			c0.4,0.1,0.8,0.1,1.2,0.2c0-0.3,0-0.8,0-1.1c-0.4-0.1-0.8-0.1-1.2-0.2C2.5,14.9,2.5,15.3,2.5,15.6z"/>
		<linearGradient id="SVGID_10_" gradientUnits="userSpaceOnUse" x1="7.3109" y1="13.9142" x2="25.678" y2="13.9142">
			<stop  offset="0" style="stop-color:#7CB4A2"/>
			<stop  offset="1" style="stop-color:#314591"/>
		</linearGradient>
		<path class="st30" d="M25.3,13.7c-0.1-0.1,0-0.3,0-0.4c-2.9,0.2-6.3,0.3-10.4,0.3c0,0.3,0,0.8,0,1.1c3.7,0.1,7.5,0,10.7-0.3
			C25.6,14.2,25.4,14,25.3,13.7z M12.3,14.6c0.5,0,1,0.1,1.6,0.1c0-0.3,0-0.8,0-1.1c-0.5,0-1,0-1.6-0.1
			C12.3,13.8,12.3,14.3,12.3,14.6z M9.7,14.4c0.5,0,1,0.1,1.5,0.1c0-0.3,0-0.8,0-1.1c-0.5,0-1-0.1-1.5-0.1
			C9.7,13.7,9.7,14.1,9.7,14.4z M7.3,14.2c0.5,0,0.9,0.1,1.4,0.1c0-0.3,0-0.8,0-1.1l-1.4-0.1C7.3,13.4,7.3,13.9,7.3,14.2z"/>
		<linearGradient id="SVGID_11_" gradientUnits="userSpaceOnUse" x1="4.3295" y1="24.4571" x2="25.8872" y2="24.4571">
			<stop  offset="0" style="stop-color:#7CB4A2"/>
			<stop  offset="1" style="stop-color:#314591"/>
		</linearGradient>
		<path class="st31" d="M25.8,24.8c-0.2-0.4-0.2-0.5,0.1-0.8c0,0,0,0,0,0c-4.5,0.4-10.4,0.5-16.9,0c0,0.3,0,0.8,0,1.1
			c5.7,0.5,12,0.5,17,0C25.9,25,25.8,24.9,25.8,24.8z M6.5,24.8C7,24.9,7.4,24.9,7.9,25c0-0.3,0-0.8,0-1.1c-0.5,0-0.9-0.1-1.4-0.1
			C6.5,24.1,6.5,24.5,6.5,24.8z M4.3,24.6c0.4,0.1,0.8,0.1,1.3,0.2c0-0.3,0-0.8,0-1.1c-0.4-0.1-0.9-0.1-1.3-0.2
			C4.3,23.8,4.3,24.2,4.3,24.6z"/>
		<linearGradient id="SVGID_12_" gradientUnits="userSpaceOnUse" x1="7.129" y1="22.4879" x2="26.3785" y2="22.4879">
			<stop  offset="0" style="stop-color:#7CB4A2"/>
			<stop  offset="1" style="stop-color:#314591"/>
		</linearGradient>
		<path class="st32" d="M26.4,21.8c-3.1,0.3-6.9,0.5-11.6,0.4c0,0.3,0,0.8,0,1.1c3.9,0.1,8,0,11.4-0.4c0-0.1-0.1-0.1-0.1-0.2
			c-0.1-0.1-0.2-0.3-0.4-0.4c0.1-0.1,0.3-0.2,0.4-0.3C26.2,22,26.3,21.9,26.4,21.8z M12.1,23.2c0.5,0,1,0,1.6,0.1c0-0.3,0-0.8,0-1.1
			c-0.5,0-1,0-1.6-0.1C12.1,22.4,12.1,22.8,12.1,23.2z M9.5,23c0.5,0,1,0.1,1.5,0.1c0-0.3,0-0.8,0-1.1c-0.5,0-1-0.1-1.5-0.1
			C9.6,22.2,9.5,22.7,9.5,23z M7.1,22.8c0.5,0.1,0.9,0.1,1.4,0.1c0-0.3,0-0.8,0-1.1c-0.5,0-0.9-0.1-1.4-0.1
			C7.1,22,7.1,22.4,7.1,22.8z"/>
		<linearGradient id="SVGID_13_" gradientUnits="userSpaceOnUse" x1="4.187" y1="30.9029" x2="19.2771" y2="30.9029">
			<stop  offset="0" style="stop-color:#7CB4A2"/>
			<stop  offset="1" style="stop-color:#314591"/>
		</linearGradient>
		<path class="st33" d="M4.2,32L4.2,32C4.2,32,4.2,32,4.2,32C4.2,32,4.2,32,4.2,32z M6.5,30.1c0,0.3,0,0.8,0,1.1
			c4,0.5,8.4,0.7,12.6,0.6c0-0.4,0.1-0.7,0.2-1.1C15.3,30.8,11,30.6,6.5,30.1z M4.3,30.9C4.7,31,5.1,31,5.6,31.1c0-0.3,0-0.8,0-1.1
			c-0.4-0.1-0.9-0.1-1.3-0.2C4.3,30.1,4.3,30.6,4.3,30.9z"/>
		<linearGradient id="SVGID_14_" gradientUnits="userSpaceOnUse" x1="4.6028" y1="28.6881" x2="21.0508" y2="28.6881">
			<stop  offset="0" style="stop-color:#7CB4A2"/>
			<stop  offset="1" style="stop-color:#314591"/>
		</linearGradient>
		<path class="st35" d="M9.2,28.2c0,0.3,0,0.8,0,1.1c3.8,0.3,7.3,0.4,10.5,0.3c0.2-0.3,0.4-0.6,0.7-0.8c0.2-0.2,0.4-0.3,0.7-0.3
			C17.2,28.7,13.1,28.6,9.2,28.2z M6.8,29.1c0.4,0,0.9,0.1,1.4,0.1c0-0.3,0-0.8,0-1.1c-0.5,0-0.9-0.1-1.4-0.1
			C6.8,28.3,6.8,28.8,6.8,29.1z M4.6,28.8C5,28.9,5.4,28.9,5.9,29c0-0.3,0-0.8,0-1.1l-1.3-0.2C4.6,28,4.6,28.5,4.6,28.8z"/>
		<linearGradient id="SVGID_15_" gradientUnits="userSpaceOnUse" x1="7.0437" y1="26.7214" x2="26.3091" y2="26.7214">
			<stop  offset="0" style="stop-color:#7CB4A2"/>
			<stop  offset="1" style="stop-color:#314591"/>
		</linearGradient>
		<path class="st36" d="M26.3,26.1C26.2,26.1,26.2,26.1,26.3,26.1c-3.1,0.3-6.9,0.4-11.5,0.3c0,0.3,0,0.8,0,1.1
			c4,0.1,8.1,0,11.5-0.4C26.3,26.8,26.3,26.5,26.3,26.1z M12,27.4c0.5,0,1,0,1.6,0.1c0-0.3,0-0.8,0-1.1c-0.5,0-1,0-1.6-0.1
			C12,26.6,12,27.1,12,27.4z M9.5,27.2c0.5,0,1,0.1,1.5,0.1c0-0.3,0-0.8,0-1.1c-0.5,0-1-0.1-1.5-0.1C9.5,26.5,9.5,26.9,9.5,27.2z
			 M7,27C7.5,27,8,27.1,8.4,27.1c0-0.3,0-0.8,0-1.1l-1.4-0.1C7.1,26.2,7.1,26.7,7,27z"/>
	</g>
	<g>
		<path class="st128" d="M44.7,12v-0.9h2.5v9.2c0,2.4-0.7,4.3-2,5.6c-1.3,1.2-3,1.8-4.9,1.8c-1.9,0-3.5-0.6-4.9-1.8
			c-0.3-0.3-0.7-0.8-1.3-1.7l2.5-0.9c0.3,0.4,0.5,0.6,0.7,0.7c0.8,0.8,1.9,1.3,3,1.3c2,0,3.4-1.3,4.1-3.9c-0.8,1.5-2.1,2.3-4,2.3
			c-1.9,0-3.5-0.7-4.9-2c-1.3-1.3-2-2.9-2-4.8c0-1.9,0.7-3.5,2-4.9c1.3-1.3,3-2,4.9-2C42.1,10.2,43.5,10.8,44.7,12z M44.7,16.1
			c-0.2-0.8-0.5-1.5-1.2-2.1c-0.8-0.8-1.9-1.3-3-1.3c-1.2,0-2.2,0.4-3,1.3c-0.8,0.8-1.3,1.9-1.3,3c0,1.2,0.4,2.2,1.3,3
			c0.8,0.8,1.9,1.3,3,1.3c1.2,0,2.2-0.4,3-1.3c0.6-0.6,1-1.3,1.2-2.1V16.1z"/>
		<path class="st128" d="M55,20.8c0.4,0.4,1.2,0.6,2.3,0.6c1.2,0,2.2-0.4,3.1-1.3c0.1-0.1,0.3-0.4,0.6-0.7l2.5,0.9
			c-0.6,0.8-1.1,1.4-1.3,1.7c-1.3,1.3-3,2-4.9,2c-1.9,0-3.5-0.7-4.9-2c-1.3-1.3-2-3-2-4.9c0-1.9,0.7-3.5,2-4.9c1.3-1.3,3-2,4.9-2
			c1.6,0,3.1,0.5,4.3,1.5c0.2,0.2,0.4,0.4,0.6,0.5c0.1,0.1,0.3,0.3,0.7,0.8l-1.3,1.3L55,20.8z M59.2,13.1c-0.3-0.2-0.9-0.3-1.9-0.3
			c-1.2,0-2.2,0.4-3,1.3c-0.8,0.8-1.3,1.9-1.3,3c0,1,0.1,1.6,0.3,1.9L59.2,13.1z"/>
		<path class="st128" d="M69.1,14.5v9.1h-2.5V11.2h2.5v1.4c0.5-1.4,1.6-2.1,3.2-2.1c1.3,0,2.4,0.5,3.2,1.4c0.8,1,1.2,2.2,1.2,3.6
			v8.1h-2.5v-8c0-0.7-0.3-1.3-0.8-1.8c-0.5-0.5-1.1-0.8-1.9-0.8c-0.7,0-1.3,0.2-1.9,0.7C69.4,14.1,69.2,14.3,69.1,14.5z"/>
		<path class="st128" d="M84.5,20.8c0.4,0.4,1.2,0.6,2.3,0.6c1.2,0,2.2-0.4,3.1-1.3c0.1-0.1,0.3-0.4,0.6-0.7l2.5,0.9
			c-0.6,0.8-1.1,1.4-1.3,1.7c-1.3,1.3-3,2-4.9,2c-1.9,0-3.5-0.7-4.9-2c-1.3-1.3-2-3-2-4.9c0-1.9,0.7-3.5,2-4.9c1.3-1.3,3-2,4.9-2
			c1.6,0,3.1,0.5,4.3,1.5c0.2,0.2,0.4,0.4,0.6,0.5c0.1,0.1,0.3,0.3,0.7,0.8l-1.3,1.3L84.5,20.8z M88.7,13.1
			c-0.3-0.2-0.9-0.3-1.9-0.3c-1.2,0-2.2,0.4-3,1.3c-0.8,0.8-1.3,1.9-1.3,3c0,1,0.1,1.6,0.3,1.9L88.7,13.1z"/>
		<path class="st128" d="M97.6,11.2V6.5h2.5v4.7h2.2v2.5h-2.2v9.9h-2.5v-9.9h-2.2v-2.5H97.6z"/>
		<path class="st128" d="M108.2,6.6c0.3,0.3,0.5,0.8,0.5,1.2c0,0.5-0.2,0.9-0.5,1.2c-0.3,0.3-0.8,0.5-1.2,0.5
			c-0.5,0-0.9-0.2-1.2-0.5c-0.3-0.3-0.5-0.8-0.5-1.2c0-0.5,0.2-0.9,0.5-1.2c0.3-0.3,0.8-0.5,1.2-0.5C107.4,6.1,107.9,6.2,108.2,6.6z
			 M108.2,11.2v12.4h-2.5V11.2H108.2z"/>
		<path class="st128" d="M122.1,19.4l2.5,0.9c-0.6,0.8-1.1,1.4-1.3,1.7c-1.3,1.3-3,2-4.9,2c-1.9,0-3.5-0.7-4.9-2c-1.3-1.3-2-3-2-4.9
			c0-1.9,0.7-3.5,2-4.9c1.3-1.3,3-2,4.9-2c1.9,0,3.5,0.7,4.9,2c0.3,0.3,0.7,0.8,1.3,1.7l-2.5,0.9c-0.3-0.4-0.5-0.6-0.7-0.8
			c-0.8-0.8-1.9-1.3-3-1.3c-1.2,0-2.2,0.4-3,1.3c-0.8,0.8-1.3,1.9-1.3,3c0,1.2,0.4,2.2,1.3,3c0.8,0.8,1.9,1.3,3,1.3
			c1.2,0,2.2-0.4,3.1-1.3C121.6,20,121.8,19.7,122.1,19.4z"/>
		<path class="st128" d="M130.8,16c0.3,0.3,0.4,0.6,0.4,1c0,0.4-0.1,0.8-0.4,1.1c-0.3,0.3-0.6,0.4-1.1,0.4c-0.4,0-0.8-0.1-1-0.4
			c-0.3-0.3-0.4-0.6-0.4-1.1c0-0.4,0.1-0.8,0.4-1c0.3-0.3,0.6-0.4,1-0.4C130.2,15.6,130.5,15.7,130.8,16z"/>
		<path class="st137" d="M148.4,23.6h-1.1v-2.4c-0.2,0.3-0.4,0.6-0.7,0.8c-1.3,1.3-2.9,1.9-4.7,1.9c-1.8,0-3.4-0.6-4.7-1.9
			c-1.3-1.3-1.9-2.9-1.9-4.7c0-1.8,0.6-3.4,1.9-4.7c1.3-1.3,2.9-1.9,4.7-1.9c1.8,0,3.4,0.6,4.7,1.9c0.2,0.3,0.5,0.5,0.7,0.8v-1.7
			h1.1V23.6z M147.4,18.4v-2.1c-0.2-1.1-0.7-2-1.5-2.8c-1.1-1.1-2.4-1.6-3.9-1.6c-1.5,0-2.8,0.5-3.9,1.6c-1.1,1.1-1.6,2.4-1.6,3.9
			s0.5,2.8,1.6,3.9c1.1,1.1,2.4,1.6,3.9,1.6c1.5,0,2.8-0.5,3.9-1.6C146.7,20.4,147.2,19.5,147.4,18.4z"/>
		<path class="st137" d="M152.6,11.8h1.1v1.7c0.2-0.3,0.4-0.5,0.7-0.8c1.3-1.3,2.9-1.9,4.7-1.9c1.8,0,3.4,0.6,4.7,1.9
			c1.3,1.3,1.9,2.9,1.9,4.7c0,1.8-0.6,3.4-1.9,4.7c-1.3,1.3-2.9,1.9-4.7,1.9c-1.8,0-3.4-0.6-4.7-1.9c-0.3-0.3-0.5-0.5-0.7-0.8v6.9
			h-1.1V11.8z M153.6,16.2v2.3c0.2,1,0.7,2,1.5,2.7c1.1,1.1,2.4,1.6,3.9,1.6c1.5,0,2.8-0.5,3.9-1.6c1.1-1.1,1.6-2.4,1.6-3.9
			s-0.5-2.8-1.6-3.9c-1.1-1.1-2.4-1.6-3.9-1.6c-1.5,0-2.8,0.5-3.9,1.6C154.4,14.2,153.9,15.1,153.6,16.2z"/>
		<path class="st137" d="M168.9,11.8h1.1v1.7c0.2-0.3,0.4-0.5,0.7-0.8c1.3-1.3,2.9-1.9,4.7-1.9c1.8,0,3.4,0.6,4.7,1.9
			c1.3,1.3,1.9,2.9,1.9,4.7c0,1.8-0.6,3.4-1.9,4.7c-1.3,1.3-2.9,1.9-4.7,1.9c-1.8,0-3.4-0.6-4.7-1.9c-0.3-0.3-0.5-0.5-0.7-0.8v6.9
			h-1.1V11.8z M170,16.2v2.3c0.2,1,0.7,2,1.5,2.7c1.1,1.1,2.4,1.6,3.9,1.6c1.5,0,2.8-0.5,3.9-1.6c1.1-1.1,1.6-2.4,1.6-3.9
			s-0.5-2.8-1.6-3.9c-1.1-1.1-2.4-1.6-3.9-1.6c-1.5,0-2.8,0.5-3.9,1.6C170.7,14.2,170.2,15.1,170,16.2z"/>
	</g>
</g>
</svg>
