<svg xmlns="http://www.w3.org/2000/svg" xmlns:xlink="http://www.w3.org/1999/xlink" viewBox="0 0 1263.6 793.69"><defs><style>.cls-1{fill:#dcfafb;}.cls-2{opacity:0.7;}.cls-3{fill:#aff9f5;}.cls-4{fill:#bdffd8;}.cls-5{fill:#003977;}.cls-6{fill:#c2866e;}.cls-7{fill:url(#linear-gradient);}.cls-8{fill:#2d7ac0;}.cls-9{fill:#00c7d1;}.cls-10{fill:#004381;}.cls-11{fill:#00d89e;}.cls-12{fill:#ffd0ce;}.cls-13{fill:url(#New_Gradient_Swatch_6);}.cls-14{fill:#ea659d;}.cls-15{fill:url(#linear-gradient-2);}.cls-16{fill:url(#linear-gradient-3);}.cls-17{fill:url(#linear-gradient-4);}.cls-18{fill:#1a1b5c;}.cls-19{fill:url(#linear-gradient-5);}.cls-20{fill:url(#New_Gradient_Swatch_6-2);}.cls-21{fill:url(#New_Gradient_Swatch_6-3);}.cls-22{fill:#a6eee9;}.cls-23{fill:#58dbdb;}.cls-24{fill:url(#New_Gradient_Swatch_14);}.cls-25{fill:url(#linear-gradient-6);}.cls-26{fill:#00add6;}.cls-27{fill:url(#New_Gradient_Swatch_12);}.cls-28{fill:url(#New_Gradient_Swatch_11);}.cls-29{fill:url(#linear-gradient-7);}.cls-30{fill:#86605f;}.cls-31{fill:url(#linear-gradient-8);}.cls-32{fill:url(#linear-gradient-9);}.cls-33{fill:url(#linear-gradient-10);}.cls-34{fill:#00649f;}.cls-35{fill:url(#linear-gradient-11);}.cls-36{fill:url(#linear-gradient-12);}.cls-37{fill:url(#linear-gradient-13);}.cls-38{fill:url(#New_Gradient_Swatch_5);}.cls-39{fill:#00c1b3;}.cls-40{fill:#65d7cc;}.cls-41{fill:#e3e3e9;}</style><linearGradient id="linear-gradient" x1="840.18" y1="539.34" x2="840.18" y2="592.36" gradientUnits="userSpaceOnUse"><stop offset="0" stop-color="#b97663"/><stop offset="1" stop-color="#c2866e"/></linearGradient><linearGradient id="New_Gradient_Swatch_6" x1="-11162.65" y1="1097.67" x2="-11004.98" y2="1097.67" gradientTransform="matrix(1, 0.04, -0.04, 1, 11685.77, 102.84)" gradientUnits="userSpaceOnUse"><stop offset="0" stop-color="#00add6"/><stop offset="1" stop-color="#00add6"/></linearGradient><linearGradient id="linear-gradient-2" x1="-11392.84" y1="640.71" x2="-11291.06" y2="817" gradientTransform="translate(11960.91 253.03) rotate(1.81)" gradientUnits="userSpaceOnUse"><stop offset="0" stop-color="#ffd0ce"/><stop offset="1" stop-color="#f4aaa7"/></linearGradient><linearGradient id="linear-gradient-3" x1="-10549.04" y1="618.07" x2="-10531.96" y2="576.36" gradientTransform="matrix(1.08, 0.01, -0.02, 1.29, 11981.59, -109.54)" xlink:href="#linear-gradient-2"/><linearGradient id="linear-gradient-4" x1="-10938.49" y1="1082.47" x2="-10923.6" y2="1082.47" gradientTransform="translate(11581.54 149.08) rotate(3.93)" xlink:href="#linear-gradient-2"/><linearGradient id="linear-gradient-5" x1="7321.81" y1="-6983.07" x2="7336.7" y2="-6983.07" gradientTransform="translate(7527.9 7804.08) rotate(-90.01)" xlink:href="#linear-gradient-2"/><linearGradient id="New_Gradient_Swatch_6-2" x1="-11162.7" y1="1180.58" x2="-11065.55" y2="1180.58" xlink:href="#New_Gradient_Swatch_6"/><linearGradient id="New_Gradient_Swatch_6-3" x1="8996.07" y1="466.13" x2="9108.34" y2="466.13" gradientTransform="matrix(-1, 0.04, -0.04, 0.98, 9688.38, 26.44)" xlink:href="#New_Gradient_Swatch_6"/><linearGradient id="New_Gradient_Swatch_14" x1="-11006.09" y1="1295.89" x2="-10964.22" y2="1295.89" gradientTransform="translate(1884 11639.23) rotate(90)" gradientUnits="userSpaceOnUse"><stop offset="0" stop-color="#bcf7e2"/><stop offset="1" stop-color="#a6eee9"/></linearGradient><linearGradient id="linear-gradient-6" x1="986.24" y1="849.1" x2="1049.53" y2="739.47" gradientTransform="matrix(1, 0, 0, 1, 0, 0)" xlink:href="#linear-gradient-2"/><linearGradient id="New_Gradient_Swatch_12" x1="1094.98" y1="878.93" x2="1234.87" y2="636.63" gradientUnits="userSpaceOnUse"><stop offset="0" stop-color="#00bec5"/><stop offset="1" stop-color="#00d89e"/></linearGradient><linearGradient id="New_Gradient_Swatch_11" x1="981.84" y1="617.3" x2="981.84" y2="741.47" gradientUnits="userSpaceOnUse"><stop offset="0" stop-color="#94edcb"/><stop offset="1" stop-color="#8ceae7"/></linearGradient><linearGradient id="linear-gradient-7" x1="-6017.57" y1="-6484.23" x2="-5999.28" y2="-6484.23" gradientTransform="translate(-4886.22 -5893.65) rotate(180)" xlink:href="#linear-gradient-2"/><linearGradient id="linear-gradient-8" x1="777.87" y1="786.43" x2="789.94" y2="786.43" gradientTransform="translate(398.14 -170.88) rotate(-1.67)" xlink:href="#linear-gradient-2"/><linearGradient id="linear-gradient-9" x1="-1649.47" y1="516.96" x2="-1582.65" y2="401.23" gradientTransform="matrix(-0.98, -0.22, -0.22, 0.98, -185.97, -9.61)" xlink:href="#linear-gradient-2"/><linearGradient id="linear-gradient-10" x1="-4549.85" y1="1372.41" x2="-4407.87" y2="1372.41" gradientTransform="matrix(-0.98, 0.19, 0.19, 0.98, -4177.29, 272.86)" gradientUnits="userSpaceOnUse"><stop offset="0" stop-color="#00d5ae"/><stop offset="1" stop-color="#00d89e"/></linearGradient><linearGradient id="linear-gradient-11" x1="3052.8" y1="-1009.81" x2="3158.03" y2="-827.55" gradientTransform="translate(-2814.29 453.23) rotate(21.67)" xlink:href="#linear-gradient-2"/><linearGradient id="linear-gradient-12" x1="2708.64" y1="-743.74" x2="2734.48" y2="-806.8" gradientTransform="matrix(1.04, 0.36, -0.33, 0.94, -2661.56, 386.32)" xlink:href="#linear-gradient-2"/><linearGradient id="linear-gradient-13" x1="-4345.38" y1="-155.76" x2="-4329.42" y2="-155.76" gradientTransform="matrix(0, -1, -1, 0, 265.3, -3747.74)" xlink:href="#linear-gradient-2"/><linearGradient id="New_Gradient_Swatch_5" x1="-3708.3" y1="839.47" x2="-3610.2" y2="669.55" gradientTransform="matrix(-1, 0, 0, 1, -3289.15, 0)" xlink:href="#linear-gradient-10"/></defs><g id="Color"><path class="cls-1" d="M1361.75,540.81q-.72-2.55-1.47-5.08l5.1-1.5q.75,2.57,1.48,5.13Z" transform="translate(-162.64 -123.3)"/><path class="cls-1" d="M1382.62,668.57c-.17-3.59-.38-7.22-.62-10.79l5.3-.36c.24,3.61.45,7.27.63,10.9ZM1381.18,647c-.31-3.58-.65-7.2-1-10.76l5.29-.56c.37,3.6.72,7.25,1,10.87Zm-2.26-21.5c-.44-3.58-.93-7.19-1.43-10.72l5.25-.76c.52,3.57,1,7.21,1.45,10.82Zm-3.07-21.41c-.58-3.56-1.21-7.14-1.85-10.65l5.23-1c.65,3.55,1.27,7.16,1.86,10.76ZM1372,582.82c-.71-3.49-1.47-7.05-2.25-10.57l5.18-1.16c.79,3.56,1.56,7.15,2.27,10.68Zm-4.7-21.1c-.85-3.49-1.74-7-2.66-10.48l5.14-1.36c.92,3.5,1.82,7.06,2.68,10.58Z" transform="translate(-162.64 -123.3)"/><path class="cls-1" d="M1383.17,684.7c0-1.76-.08-3.52-.13-5.28l5.31-.16c.05,1.78.09,3.56.13,5.34Z" transform="translate(-162.64 -123.3)"/><path class="cls-1" d="M1223.88,301.81q-1.83-1.89-3.69-3.78l3.78-3.73q1.88,1.9,3.73,3.82Z" transform="translate(-162.64 -123.3)"/><path class="cls-1" d="M1292.49,388.14c-2-3.06-4-6.16-6.1-9.21l4.41-3c2.08,3.08,4.15,6.21,6.15,9.3Zm-12.36-18.3c-2.11-3-4.28-6-6.45-9l4.28-3.14c2.2,3,4.39,6,6.51,9ZM1267.06,352c-2.23-2.93-4.52-5.86-6.78-8.72l4.15-3.3c2.29,2.88,4.6,5.84,6.85,8.79Zm-13.74-17.29c-2.33-2.82-4.72-5.66-7.12-8.45l4-3.46c2.42,2.81,4.83,5.68,7.18,8.52ZM1238.92,318c-2.45-2.74-5-5.49-7.44-8.16l3.89-3.62c2.51,2.7,5,5.47,7.51,8.24Z" transform="translate(-162.64 -123.3)"/><path class="cls-1" d="M1301.17,402q-1.38-2.26-2.77-4.51l4.52-2.8,2.79,4.55Z" transform="translate(-162.64 -123.3)"/><path class="cls-1" d="M499,225.1l-3-4.4c1.48-1,3-2,4.44-3l2.93,4.43Z" transform="translate(-162.64 -123.3)"/><path class="cls-1" d="M512.42,216.34l-2.84-4.49c3-1.92,6.14-3.85,9.21-5.71l2.76,4.54C518.5,212.53,515.43,214.43,512.42,216.34Zm18.36-11.15-2.67-4.59c3.1-1.81,6.27-3.61,9.42-5.36l2.59,4.64C537,201.61,533.86,203.4,530.78,205.19Zm564.61-3c-3.09-1.75-6.25-3.5-9.4-5.21l2.53-4.67c3.19,1.73,6.38,3.5,9.49,5.26Zm-545.84-7.45-2.49-4.68c3.18-1.7,6.41-3.38,9.62-5l2.4,4.73C555.91,191.4,552.7,193.07,549.55,194.74Zm526.94-2.8c-3.17-1.64-6.4-3.27-9.59-4.85l2.36-4.76c3.22,1.59,6.48,3.24,9.68,4.9ZM568.7,185l-2.31-4.78c3.24-1.57,6.54-3.13,9.8-4.63l2.22,4.82C575.18,181.92,571.91,183.47,568.7,185Zm488.52-2.61c-3.22-1.51-6.51-3-9.77-4.48l2.17-4.85c3.3,1.48,6.61,3,9.86,4.53Zm-469-6.38-2.13-4.86c3.27-1.44,6.62-2.87,10-4.26l2,4.91C594.77,173.2,591.45,174.61,588.21,176Zm449.39-2.4c-3.27-1.39-6.62-2.78-9.94-4.12l2-4.92c3.35,1.35,6.72,2.75,10,4.15ZM608,167.8l-1.95-5c3.32-1.3,6.72-2.6,10.13-3.87l1.85,5C614.7,165.21,611.32,166.5,608,167.8Zm409.61-2.21c-3.33-1.27-6.72-2.52-10.08-3.73l1.8-5c3.38,1.22,6.81,2.49,10.17,3.77Zm-389.49-5.27-1.75-5c3.39-1.19,6.85-2.36,10.26-3.49l1.66,5.05C635,158,631.53,159.14,628.16,160.32Zm369.26-2c-3.37-1.14-6.8-2.27-10.22-3.35l1.6-5.06c3.45,1.09,6.92,2.23,10.32,3.37Zm-348.86-4.71L647,148.54c3.43-1.06,6.92-2.1,10.38-3.09l1.47,5.11C655.42,151.54,652,152.57,648.56,153.62Zm328.36-1.79c-3.42-1-6.9-2-10.35-3l1.41-5.12c3.48,1,7,2,10.44,3Zm-307.73-4.14-1.36-5.13c3.46-.92,7-1.83,10.49-2.69l1.27,5.16C676.13,145.88,672.63,146.78,669.19,147.69Zm287-1.56c-3.47-.88-7-1.74-10.45-2.55l1.21-5.18c3.5.82,7,1.69,10.55,2.58ZM690,142.57l-1.17-5.19c3.51-.79,7.08-1.56,10.59-2.28l1.07,5.2C697,141,693.51,141.78,690,142.57Zm245.21-1.35c-3.5-.75-7-1.47-10.54-2.15l1-5.22c3.53.69,7.11,1.42,10.64,2.18Zm-224.18-3-1-5.22c3.55-.66,7.14-1.29,10.67-1.88l.87,5.24C718.12,137,714.57,137.58,711.06,138.23Zm203.06-1.12c-3.51-.61-7.08-1.2-10.61-1.75l.81-5.25c3.57.56,7.17,1.15,10.72,1.77Zm-181.9-2.41-.77-5.25c3.53-.52,7.14-1,10.72-1.48l.68,5.27C739.3,133.7,735.72,134.19,732.22,134.7Zm160.64-.89c-3.51-.48-7.1-.93-10.67-1.35l.61-5.27c3.61.42,7.23.88,10.78,1.36ZM753.5,132l-.57-5.28c3.55-.39,7.17-.75,10.77-1.08l.48,5.3C760.61,131.24,757,131.59,753.5,132Zm118-.66c-3.56-.35-7.17-.67-10.72-.95l.42-5.29c3.58.28,7.22.6,10.82,1Zm-96.62-1.26-.38-5.3c3.58-.26,7.21-.48,10.81-.67l.28,5.3C782,129.58,778.41,129.8,774.87,130.06Zm75.17-.43c-3.55-.21-7.16-.39-10.75-.54l.22-5.31c3.62.15,7.27.34,10.84.55Zm-53.75-.7-.18-5.3c3.58-.12,7.23-.21,10.83-.27l.07,5.31C803.45,128.73,799.84,128.82,796.29,128.93Zm32.24-.18c-3.56-.08-7.18-.12-10.76-.14l0-5.31c3.61,0,7.26.06,10.86.14Z" transform="translate(-162.64 -123.3)"/><path class="cls-1" d="M1109.31,210.36q-2.25-1.37-4.53-2.72l2.71-4.57q2.29,1.37,4.57,2.75Z" transform="translate(-162.64 -123.3)"/><path class="cls-1" d="M308.83,440.47l-4.74-2.4,1.74-3.39.69-1.36,4.72,2.45-.69,1.33Z" transform="translate(-162.64 -123.3)"/><path class="cls-1" d="M316,426.69l-4.67-2.53c1.62-3,3.31-6.05,5-9.07L321,417.7C319.32,420.69,317.65,423.71,316,426.69Zm10.09-17.88-4.58-2.7c1.74-2.94,3.53-5.93,5.34-8.88l4.53,2.78C329.63,402.93,327.85,405.89,326.13,408.81Zm10.73-17.51-4.48-2.86c1.83-2.86,3.73-5.79,5.66-8.68l4.42,2.94C340.56,385.56,338.67,388.46,336.86,391.3Zm11.36-17.1-4.38-3c2-2.85,4-5.71,6-8.48l4.31,3.1C352.15,368.55,350.17,371.37,348.22,374.2Zm12-16.69-4.26-3.17c2.06-2.76,4.16-5.54,6.27-8.26l4.2,3.25C364.3,352,362.22,354.78,360.18,357.51Zm12.56-16.24-4.14-3.33c2.13-2.66,4.34-5.36,6.56-8l4.08,3.4C377,336,374.86,338.63,372.74,341.27Zm13.14-15.79-4-3.47c2.23-2.59,4.54-5.21,6.84-7.78l3.95,3.54C390.37,320.32,388.09,322.91,385.88,325.48Zm13.69-15.29-3.89-3.62c2.34-2.53,4.74-5.06,7.11-7.53l3.83,3.68C404.27,305.17,401.9,307.68,399.57,310.19Z" transform="translate(-162.64 -123.3)"/><path class="cls-1" d="M413.82,295.38l-3.77-3.75,3.79-3.76,3.73,3.78Q415.68,293.51,413.82,295.38Z" transform="translate(-162.64 -123.3)"/><path class="cls-1" d="M253.45,615.27l-5.26-.73q.36-2.64.75-5.28l5.26.77C253.94,611.77,253.69,613.52,253.45,615.27Z" transform="translate(-162.64 -123.3)"/><path class="cls-1" d="M255.75,600.12l-5.24-.87c.55-3.32,1.14-6.67,1.74-10l5.23,1C256.88,593.51,256.3,596.83,255.75,600.12Zm3.63-19.73-5.21-1c.68-3.33,1.38-6.67,2.1-9.91l5.19,1.14C260.74,573.79,260.05,577.09,259.38,580.39Zm4.33-19.59-5.17-1.24c.79-3.29,1.61-6.59,2.45-9.83l5.14,1.33C265.3,554.27,264.49,557.54,263.71,560.8Z" transform="translate(-162.64 -123.3)"/><path class="cls-1" d="M268.73,541.37,263.61,540l.47-1.7c.33-1.14.65-2.29,1-3.43l5.11,1.46c-.33,1.14-.65,2.27-1,3.41Z" transform="translate(-162.64 -123.3)"/><g class="cls-2"><path class="cls-1" d="M1041.91,351.05c-9.35-65-72.63-103.07-152.71-86.17-99.31-120.17-305.36-81.24-317.88,69.22C473.53,349.66,453.76,421.64,461,464.79c74.27,0,626.85-1.47,699.92-1.47C1160.9,421.64,1137,359.49,1041.91,351.05Z" transform="translate(-162.64 -123.3)"/></g><path class="cls-1" d="M163.05,606.34s155.82,6,232.79,152.36c42.8,81.36,135.51,103.46,135.51,103.46s-166,24.11-293.07-61.9C152.48,742.2,163.05,606.34,163.05,606.34Z" transform="translate(-162.64 -123.3)"/><path class="cls-3" d="M165.16,847.2s59.6,41.18,153.83,14.09c53.87-15.49,102.41-15.86,102.41-15.86s-38.25-59.85-135-58.44C227.88,787.84,165.16,847.2,165.16,847.2Z" transform="translate(-162.64 -123.3)"/><path class="cls-4" d="M1426.23,699.11s-90.6-7.24-162.35,83.87c-39.9,50.65-97.29,58.57-97.29,58.57s90.74,27.88,179.92-19.78C1406.71,789.61,1426.23,699.11,1426.23,699.11Z" transform="translate(-162.64 -123.3)"/><path class="cls-1" d="M1417.86,839.57S1380.24,873.93,1312,864a300.06,300.06,0,0,0-72.87-1.35s21-45.33,88.57-53.53C1368.52,804.16,1417.86,839.57,1417.86,839.57Z" transform="translate(-162.64 -123.3)"/><path class="cls-5" d="M941,515.39c0,6.84,4.85,10.09,2.7,19.78-1.42,6.43-9.85,9-12.15,15-3.31,8.62,4.87,26.34-5.73,34.26-7.69,5.75-19.72,3.67-27.19,9.54-7.93,6.23-9.9,16.93-19.42,20.49-10.53,3.94-21.59.15-33.42.15-10.58,0-21.07,4.22-30.64,1-8.86-2.95-11.83-15.18-19.43-20.43-5.58-3.86-16.13-.25-20.85-5.18-5.26-5.49-4.78-21.4-8.77-28-5.69-9.42-15.14-10-17.71-21.18-1.81-7.84,6.68-19,6.68-27.45,0-7.8-8.63-12.4-7.07-19.71,1.86-8.74,15.85-11.63,19.68-19.39,3.28-6.65-3.85-18.31.67-24,5.78-7.32,23.06-3.47,30.53-8.92,8.94-6.52,8.4-21.89,19.16-25.09,8.72-2.6,15.43,6.46,25,6.46,10.83,0,23.75-8.65,33.52-5.32,8.49,2.88,10,15.13,17.3,20.15,7.58,5.19,20-.23,25.95,6.87,6.59,7.85,5.52,18.84,9.62,28.51,2.62,6.17,11.84,7.66,14.94,18.56C947.53,502.69,941,507.59,941,515.39Z" transform="translate(-162.64 -123.3)"/><path class="cls-5" d="M816.56,463.15c-9,11.8-10.53,27.84-3.67,40.11.17.3,50.52,11.86,53.45,12,27.51,1,24.93-34.16,20.74-43.86C876.83,447.63,835.89,437.94,816.56,463.15Z" transform="translate(-162.64 -123.3)"/><path class="cls-6" d="M846.21,629.33c14.22.43,31.19-38.47,36.46-46.71a104.77,104.77,0,0,0-11.14-4.87c-23.95-7.24-34-9.85-62.44,1.62-3.36,1.36-12.57,7.27-12.57,7.27C796.77,587.72,833.7,629,846.21,629.33Z" transform="translate(-162.64 -123.3)"/><path class="cls-7" d="M824.7,539.34l31.84.61a.6.6,0,0,1,.59.61l-.87,45.28a6.65,6.65,0,0,1-6.77,6.52L829.74,592a6.65,6.65,0,0,1-6.52-6.77l.87-45.29A.59.59,0,0,1,824.7,539.34Z" transform="translate(-162.64 -123.3)"/><path class="cls-6" d="M882.71,517.08a7.55,7.55,0,1,1-6.74-8.34A7.58,7.58,0,0,1,882.71,517.08Z" transform="translate(-162.64 -123.3)"/><path class="cls-6" d="M819.88,510.33a7.55,7.55,0,1,1-6.75-8.34A7.59,7.59,0,0,1,819.88,510.33Z" transform="translate(-162.64 -123.3)"/><path class="cls-6" d="M876.89,510.23c-4.08,25.93-25.55,43.17-36.59,42.06S810,532.56,812.61,506.44s6.51-47.9,36.75-44.06C893.21,468,878.84,497.83,876.89,510.23Z" transform="translate(-162.64 -123.3)"/><path class="cls-5" d="M871.93,455.93c-7.5-7-34.71-15.55-53.15,1-23.29,20.84-5.63,45.18-5.63,45.18s2.1-19.13,10.78-24.09c10.61-6.07,17,1.46,22.77,4.67,10.37,5.73,22.25-4.28,28,.86,6.39,5.73,2.43,25.41,2.43,25.41s6.18-5.74,8.25-12.81C890.71,477.91,878.06,461.68,871.93,455.93Z" transform="translate(-162.64 -123.3)"/><path class="cls-8" d="M941.3,804.81c-9.67-33.51-30.54-64.89-51.75-104.53,0,0-26.18,5.58-46.42,8-24.46,3-39.22-1.85-39.22-1.85C760.76,793,759.28,812.35,760.76,849.73c.44,11,3.49,67.26,3.49,67.26h86.4l6.14-21.9,5.43,21.9h79.09s2.94-52.94,3.91-64.22S943.21,811.41,941.3,804.81Z" transform="translate(-162.64 -123.3)"/><path class="cls-9" d="M803,706l-37.52,81.86s32,7.14,42.91,8.57a372.46,372.46,0,0,0,43.18,3.47l1.92-15.69,5.62,14.73s23.94-6.14,39.71-13.45c11.91-5.51,30.53-16.46,30.53-16.46l-39.53-69.34Z" transform="translate(-162.64 -123.3)"/><path class="cls-6" d="M706.37,697.74c7.37,13.92,36.72,60.54,36.79,62,.19,3.92,6.35,18.3,8.49,23.15,2.73,6.19,14.25,19.24,17.57,23.08,2.63,3,4.65.61,3.47-1.66a25.39,25.39,0,0,1-2.06-4.44s6.44,7.27,11.66,10.52c.47.29,4.15,1.73,5.79-.27a3.27,3.27,0,0,0,0-3.94,84.18,84.18,0,0,1-7.55-13.5s4,1.8,8.51,7.68c1.26,1.64,4.71,2.49,3.1-3.16-2.13-7.45-13.35-20.31-14.16-28.26a34.84,34.84,0,0,1,1.1-10.84c-2.58-1.58-17.2-10-19.52-11.9-12.9-10.75-21.9-51.21-26.69-56.32C719.23,675.27,703.27,691.88,706.37,697.74Z" transform="translate(-162.64 -123.3)"/><path class="cls-6" d="M967.13,779.61,961,799.69s-6,13.18-9.64,16.18c-3.08,2.56-13.94,8.46-15,6.4-1.42-2.78,1.06-3.62,1.06-3.62s-7.44,4.21-10.1,5.19c-1.23.45-3.19,1.21-4.32.55-.77-.44-2-1.91-1.78-2.76,1.61-5.78,5.63-7.35,5.63-7.35s.67,2.55-8.46,3.24c-2.26.17-3.62-2-2.91-2.68,11.11-10.72,18.57-19.7,18.22-30.15l-2.65-7.16L948.41,766s15.2-81.09,31.77-71.06C984.54,697.55,967.13,779.61,967.13,779.61Z" transform="translate(-162.64 -123.3)"/><path class="cls-9" d="M983,685.45s-48.6-61.57-79.37-90.61C894.5,586.2,870,574.79,870,574.79s-3,24.47-32.24,25.53c-26.46,1-33.08-21.19-33.08-21.19s-19.08,9.15-29,17.41c-14.24,11.89-66.92,75.82-77.12,91.51-2.48,3.81-1.49,6.73-.08,8.35,7.72,8.82,38.06,60.88,38.06,60.88L757.18,741,741.29,696.4s34.35-42.1,39.82-37.8c9,7,20,40.6,23.55,52,3.94,12.67,80.14,15.1,84.89-10.31,1-5.41,2.05-30.42,10.28-33.27,14.34-5,48.26,28.5,48.26,28.5l-2.21,68.07,29,6,8.66-75.56Z" transform="translate(-162.64 -123.3)"/><path class="cls-10" d="M612,550.7c9.25-1.28,24.17,24.81,28.87,48.74,8.66,44.08,16,57.42,15.94,93.95,0,8.14-14.79,81.84-14.79,81.84l-19.18-15.57,4.58-55.28S600,552.36,612,550.7Z" transform="translate(-162.64 -123.3)"/><polygon class="cls-11" points="453.01 586.84 380.85 588.8 370.34 440.46 436.99 443.05 453.01 586.84"/><path class="cls-12" d="M502,917H567.3c1.37-23.61,2.37-46.77,2.37-46.77L493.18,799s1.49,51.66,3.05,71.28C497.13,881.73,499.58,900.35,502,917Z" transform="translate(-162.64 -123.3)"/><path class="cls-12" d="M656.79,917c-8.43-47.1-17.34-93.07-17.34-93.07l-65,29.57s10.31,29,21.48,63.5Z" transform="translate(-162.64 -123.3)"/><path class="cls-13" d="M571,835.09c-21.22,1.93-83.89-16.7-82.48-45,1.53-30.76,28.68-82.55,28.68-82.55l98.95-1.84S641,760.61,645.78,781C653.53,814.11,591.63,833.22,571,835.09Z" transform="translate(-162.64 -123.3)"/><path class="cls-14" d="M535.39,425.32c-32.29,40.73-27,97.15-18.45,108.06,11.43,14.57,71.74,5.22,97.08,8.79,4.85.69,21.35-52.58,1.22-105.69C605.52,410.82,554.85,400.77,535.39,425.32Z" transform="translate(-162.64 -123.3)"/><path class="cls-15" d="M569.62,583.92c14-1.5,30.61-22.48,36.33-30.25a101.31,101.31,0,0,0-10.66-5.51c-23.11-8.67-32.83-11.88-61.56-2.42-3.4,1.12-12.85,6.35-12.85,6.35C521.06,553.18,555.53,585.42,569.62,583.92Z" transform="translate(-162.64 -123.3)"/><path class="cls-16" d="M577.32,504l-29.47-.35a1.62,1.62,0,0,0-1.48,1.73l-.4,35.29c-.13,10.7,8,17.1,16.93,17.21s15.34-7.6,15.46-18.3l.4-33.82A1.61,1.61,0,0,0,577.32,504Z" transform="translate(-162.64 -123.3)"/><path class="cls-17" d="M608.92,480.8a7.45,7.45,0,1,1-6.92-8A7.49,7.49,0,0,1,608.92,480.8Z" transform="translate(-162.64 -123.3)"/><path class="cls-12" d="M576.84,433.17h0c-16.69-1.15-31.18,11.84-32.36,29l-2,28.34c-1.18,17.16,15.93,32.29,31.73,33.41,17.53,1.23,27.56-12.09,28.74-29.26l1.94-28.34C606.12,449.16,593.54,434.31,576.84,433.17Z" transform="translate(-162.64 -123.3)"/><path class="cls-14" d="M599.58,423.17c-7.45-6.68-27.3-13.12-46.58,1.39-19.72,14.84-12.32,45.72-8.93,43.53,11.22-7.24,10-18.62,20.1-18.33,8.11.23,19.79,22.66,46.47,28.23,2.08.43,6.22-14.27,5.47-21.5C614,435.69,605.67,428.63,599.58,423.17Z" transform="translate(-162.64 -123.3)"/><path class="cls-18" d="M572.11,469l-12.76-.86a4.78,4.78,0,0,0-4.92,4.61c-.44,6.48,4.12,12.09,10.17,12.49l2.26.16c4.81.32,9-3.6,9.34-8.74l.17-2.43A4.79,4.79,0,0,0,572.11,469Zm2.56,7.55a7.48,7.48,0,0,1-7.69,7.21l-2.27-.16c-5.2-.35-9.13-5.17-8.75-10.75a3.19,3.19,0,0,1,3.28-3.07l12.76.86a3.19,3.19,0,0,1,2.84,3.49Z" transform="translate(-162.64 -123.3)"/><path class="cls-18" d="M585.45,474.87l-.16,2.43c-.35,5.14,3.27,9.59,8.07,9.91l2.27.16c6,.4,11.32-4.54,11.77-11a4.79,4.79,0,0,0-4.26-5.23l-12.76-.86A4.79,4.79,0,0,0,585.45,474.87ZM587,475a3.2,3.2,0,0,1,3.29-3.08l12.76.86a3.19,3.19,0,0,1,2.83,3.49c-.37,5.58-4.92,9.83-10.12,9.48l-2.27-.16a7.46,7.46,0,0,1-6.65-8.17Z" transform="translate(-162.64 -123.3)"/><path class="cls-18" d="M584.52,474.8a5.8,5.8,0,0,0-7.25-.56.79.79,0,0,0-.22,1,.67.67,0,0,0,1,.22,4.45,4.45,0,0,1,5.6.43.64.64,0,0,0,.4.18.69.69,0,0,0,.57-.25A.78.78,0,0,0,584.52,474.8Z" transform="translate(-162.64 -123.3)"/><ellipse class="cls-19" cx="543.49" cy="476.37" rx="7.52" ry="7.45" transform="translate(-131.22 863.06) rotate(-86.12)"/><path class="cls-5" d="M544.12,540.87s33.07,74,35.58,97.28c3.5,32.4,5.66,122.05,5.66,122.05l-89.55-5,5.91-87.43s-16.73-86.55,4.18-108C513.35,552.15,544.12,540.87,544.12,540.87Z" transform="translate(-162.64 -123.3)"/><path class="cls-5" d="M581.09,542.18S598.72,613,599.34,647c.57,31-1.82,113.19-1.82,113.19l39.12-7.89s.21-38.55-1.67-76.52c-2.78-56-3.41-92.59-19.33-117.9C609.54,548.18,581.09,542.18,581.09,542.18Z" transform="translate(-162.64 -123.3)"/><path class="cls-20" d="M572.42,917l12-93.07s-93.71-58.7-95.66-36.38c-2.08,23.89,1.81,79,6.37,129.45Z" transform="translate(-162.64 -123.3)"/><path class="cls-21" d="M665.7,917c-5.66-48.82-12.89-103.77-19.92-136-4.5-20.59-74.87,57.27-74.87,57.27L590.55,917Z" transform="translate(-162.64 -123.3)"/><polygon class="cls-22" points="407.94 528.48 411.38 520.66 440.77 521.3 443.87 529.09 407.94 528.48"/><path class="cls-23" d="M606.89,657l-.77,5.87-4.63,35a3.44,3.44,0,0,1-3.49,3l-21-.46a3.44,3.44,0,0,1-3.35-3.14L570,655.84Z" transform="translate(-162.64 -123.3)"/><rect class="cls-24" x="584.46" y="632.62" width="8.09" height="41.87" transform="translate(-240.45 1104.26) rotate(-88.74)"/><path class="cls-12" d="M574.87,693.64c-4.38,1.48-18.82-.83-28.54-2.19l-2.24-12.94s10.06-1.46,11.4-1.81c8.62-2.23,19.22-8.37,27.72-11,4.25-1.32,21.68,2.41,21.68,2.41a11.45,11.45,0,0,1-2.84,3.1c-3,1.72-15,0-15,0L598,678.61l5.25,7.76s-.91,1.17-3.42,1.27c-2.17.09-5.82-5.17-5.82-5.17l-6.57-1,11.37,13.18s-2.92,2.36-4.12,2.58-5.09-1-5.09-1-1.34,1.47-1.77,1.57C583.62,698.81,577.85,692.63,574.87,693.64Z" transform="translate(-162.64 -123.3)"/><path class="cls-10" d="M508.7,562c-11.39-1.91-28,12.81-35.71,39.69-11.1,38.87-11.08,61.42-12.76,103-.71,17.62,9.17,14,14.74,13.81,45.91-1.71,83.51-17.52,83.51-17.52l-4.08-29.34L501,674.89l10.51-69.82S515,563,508.7,562Z" transform="translate(-162.64 -123.3)"/><path class="cls-25" d="M1018.27,734.13s-13.32,21.45-26.38,47c-7.21,14.11-16.08,42.38-19.1,55-1.47,6.17,2.81,7.51,9.3,7.89,0,0,43.43-3,45.58-6.77L1068.49,765a11.13,11.13,0,0,0-3.79-14.86l-30.33-19.41A11.73,11.73,0,0,0,1018.27,734.13Z" transform="translate(-162.64 -123.3)"/><path class="cls-26" d="M1265,917s.31-13.52,0-18c-1.28-16.37-16.5-63.57-16.5-63.57L1077,832.63s-21.46,40.2-25,55.32c-1.63,6.92-7.24,29-7.24,29Z" transform="translate(-162.64 -123.3)"/><path class="cls-12" d="M1164.1,675.55c-17.25.64-48.19-25.09-54.66-34.79,0,0,6.89-7,14-9.17,42.51-12.88,39.41-16,74-2.68,4.1,1.57,17.32,6.13,17.32,6.13C1214.55,636.33,1179.27,675,1164.1,675.55Z" transform="translate(-162.64 -123.3)"/><path class="cls-27" d="M1074.46,650.13c6.74-9.38,54.1-21.22,54.1-21.22s.86,11.94,5.37,19c9.51,14.94,46.74,19.13,58,5.39,5.62-6.86,15.62-23,15.62-23s46.73,11.88,56.08,25.24c17.14,24.49,1,198-7.68,208.89-5.1,6.38-183.77,19.48-188.78-4-3.79-17.73,3.64-130.09,2.75-139.3C1068,701.78,1068.13,658.93,1074.46,650.13Z" transform="translate(-162.64 -123.3)"/><path class="cls-11" d="M1083.4,644c-8.71-6-23.16,21.6-26.85,28.24-10.15,18.24-35.55,46.22-46.63,67.21,21.51,11.44,40.61,25.14,51.09,47.64,0,0,13.67-29.84,19-41.11C1086.92,731.2,1090.82,649.1,1083.4,644Z" transform="translate(-162.64 -123.3)"/><polygon class="cls-28" points="887.2 618.06 966.56 627.1 994.39 627.96 1076.48 617.3 1063 725.82 989.13 738.73 989.14 741.47 968.06 741.47 967.84 737.59 893.13 725.82 887.2 618.06"/><path class="cls-29" d="M1113.06,590.57c0-4.85,2.81-8.69,8.32-8.69s10,3.93,10,8.79-1.44,8.61-7,8.61S1113.06,595.43,1113.06,590.57Z" transform="translate(-162.64 -123.3)"/><path class="cls-12" d="M1161.72,652.35h0c-12.71-2.24-37.24-10-38.67-27.37l-3.54-49.39c-1.57-19.17,15.87-35.48,38-35.48h7.09c22.08,0,39.53,16.31,38,35.48L1199,625C1197.54,642.31,1181.68,652.35,1161.72,652.35Z" transform="translate(-162.64 -123.3)"/><path class="cls-30" d="M1118.29,587.41l2.29,8,12.61-28.81,64.87,3.15,3.37,25.66,3.9-6.26s5-16.84,0-30.51c-2.65-7.24-14.2-16-25.43-18.81-8.77-2.17-27-2.77-36.26-1-14.25,2.78-15.5,12.18-15.5,12.18s-8.45,5.76-10.1,9.08C1114.78,566.7,1118.29,587.41,1118.29,587.41Z" transform="translate(-162.64 -123.3)"/><path class="cls-31" d="M1210.71,591.63c.2,4.86-5.2,9.8-10.7,9.58-2.81-.11,0-17.18.93-17.36A8.06,8.06,0,0,1,1210.71,591.63Z" transform="translate(-162.64 -123.3)"/><path class="cls-30" d="M1119,576.31s35.85,14.27,48.83,15.26c10,.77,24.37-1.34,30.92-9.14,6.4-7.62,3.81-26,3.81-26a144.45,144.45,0,0,1-28.16,3.05c-7.43,0-31.53-5.39-48.67-2C1119,558.77,1119,576.31,1119,576.31Z" transform="translate(-162.64 -123.3)"/><path class="cls-30" d="M1141.46,626.05a38.77,38.77,0,0,0,5.17-3.28c4.26-2.95,7.88-3.61,12.73-3.31a18.53,18.53,0,0,1,10.24,3.39c2.69,1.94,4.09,3.19,6.2,4.18,5.46,2.57,14.92-3.31,17.52-7.77,3.66-6.26,6.42-39.2,6.42-39.2l1.69,10.06a6.16,6.16,0,0,0,0,.75c.55,4.47,6.15,48-12.81,61.48-2.81,2-11.86,4.18-15.62,4.68-6,.79-18.31,0-24.3-.87a57.12,57.12,0,0,1-16.57-6.16c-11.84-7.63-11.69-52.31-11.61-58.72a6.83,6.83,0,0,1,.19-1.49l1-4.1s1.22,18.4,4.33,31.2C1128.12,625.14,1137.75,627.8,1141.46,626.05Z" transform="translate(-162.64 -123.3)"/><path class="cls-12" d="M988.73,857.4c17-.56,31.12-14.42,48-13.62,14.19.67,15-12.8,15.17-14.46.46-5.55-19.16-12.21-26-15.49-8.38-4-15.18-5.84-27.73-3.82-10.66,1.72-28,19.42-26,34h0C973,850,982.51,857.61,988.73,857.4Z" transform="translate(-162.64 -123.3)"/><path class="cls-12" d="M1021.27,839.48,1044,850.26s10.92,4.48,14.8,4.08c3-.3,25.26-1.62,29.5-6.89a21.54,21.54,0,0,0,1.39-4,34.3,34.3,0,0,1,4.52-3c1.25-.47-.32-4.28-4-6-.22-.11-3.3-1.21-6.92-2.49-5.43-1.93-13.14-7.77-13.14-7.77a65.1,65.1,0,0,1,12.44,2.93c2.78,1.06,8.59,4.4,11.8,3.11.89-.35,2.5-3.7-1.06-7-3.3-3.06-10.77-5.63-18.48-8.31-2.79-1-2.94-2.33-17.1-4.06l-4.11-.74-.38-6.93s-21.51,5.06-26.08,5.85c-1.13.19-19.56.13-19.56.13Z" transform="translate(-162.64 -123.3)"/><path class="cls-32" d="M1301.74,728.65a151,151,0,0,1,23.14,55.09c3,15.56,5.37,47.67,5.59,60.68.11,6.35-55.68-9-57-13.17l-22.11-85.82c-1.72-5.66.06-15.07,5.68-17.14l29.66-6.43A11.73,11.73,0,0,1,1301.74,728.65Z" transform="translate(-162.64 -123.3)"/><path class="cls-12" d="M1301.75,855.75c-21.45-3.93-30.47-17.51-47.27-15.33-14.09,1.83-4.23-21.14,2.29-25,8-4.71,16.34-6.67,29-5.86,28.65,1.83,39.47,13.51,43.72,27.55a26.12,26.12,0,0,1,.39,12.45C1327.48,861,1307.87,856.87,1301.75,855.75Z" transform="translate(-162.64 -123.3)"/><path class="cls-12" d="M1254.48,840.42s-18.27,4.83-24.45,6c-3.81.72-11.79,1.58-15.52.41-2.83-.89-24.21-6-27.31-12.05a21.29,21.29,0,0,1-.55-4.23s-3.56-2.42-3.84-3.8,1.17-4.13,5.16-5.1c.24-.06,3.48-.52,7.28-1,5.71-.8,14.43-5,14.43-5a65,65,0,0,0-12.77.37c-2.94.48-9.3,2.59-12.19.68-.8-.52-1.71-4.13,2.44-6.64,3.85-2.34,10.63-4.51,18.72-5.59,2.94-.39,5-.48,19.2.68l5.87.59,1-7s18.45,9.44,22.91,10.68c6.34,1.76,24.89,0,24.89,0Z" transform="translate(-162.64 -123.3)"/><path class="cls-11" d="M1248.41,739.84c.52,9.79,8,43.22,8,43.22l68.5-20.62S1314.74,734.58,1310,725c-8.14-16.26-13-27.23-29.55-50.83-4.26-6.08-20.57-22.51-20.57-22.51S1247.23,717.6,1248.41,739.84Z" transform="translate(-162.64 -123.3)"/><path class="cls-33" d="M448.25,695.51c7.18,27,17.06,75,17.06,75s20.85,9.18,81.48,13c3.48.21,5.29,3.3,7.23,6.49.3.48,7.31,1.88,9.1,2.95,3,1.8-3.8,24.81-6.69,31.76-2.41,5.8-8.38,2.5-8.38,2.5a13.63,13.63,0,0,1-5.58,4.44c-24.07,9.1-94.66-8.6-113.13-15.12-3.15-1.11-.65-3.19-3.41-9.24-18.1-39.61-18.34-92.11-14.67-119.52.75-5.58,7.35-19.13,11.85-19.18C435.94,668.41,443,675.89,448.25,695.51Z" transform="translate(-162.64 -123.3)"/><path class="cls-34" d="M434.25,537c-15.68,9.83-26,32.54-17.64,48.5,7.23,13.81,51.35,25.7,54.57,26.53,30.21,7.77,33.92-27.27,30.16-43.38C495,541.54,463.51,518.66,434.25,537Z" transform="translate(-162.64 -123.3)"/><path class="cls-35" d="M384.47,692.69c13.6,6.42,42.54.67,51.13-5.08,0,0-5.09-24.52-8.17-27.14-20.13-17.15-19.76-14.33-52.17-15.25-3.83-.11-10.31,15.25-10.31,15.25C364.73,661.63,372.51,687,384.47,692.69Z" transform="translate(-162.64 -123.3)"/><path class="cls-36" d="M421.09,594.23l19.28,37.54a1.59,1.59,0,0,1,1,2l-15.41,34.08c-3.17,9.11-7.46,7.84-16.57,4.67h0c-9.11-3.17-16.22-13.92-13.05-23l22.77-54.3A1.58,1.58,0,0,1,421.09,594.23Z" transform="translate(-162.64 -123.3)"/><path class="cls-34" d="M418.38,597.09l-3.14-20.61s-14.63,20.43-22.69,36.16c-13.16,25.68-15.52,47.36-4,68.94,10.64,19.85,3.45,28.5,3.93,28.56,0,0,16.09-18,14.94-31-3-33.55-1.76-38.94-.82-49.51C408,614.79,418.38,597.09,418.38,597.09Z" transform="translate(-162.64 -123.3)"/><ellipse class="cls-37" cx="421.32" cy="589.56" rx="8.06" ry="7.98" transform="translate(-389.28 790.67) rotate(-81.04)"/><path class="cls-12" d="M487.43,613.17c-7.61,26.4-31.48,39.17-41.38,34.24-20.65-10.29-30.48-30-22.86-56.4s27.35-40.25,45.38-35S495.05,586.78,487.43,613.17Z" transform="translate(-162.64 -123.3)"/><path class="cls-34" d="M451.74,543c-24.4,3.45-29.51,37.06-29.17,38.56.54,2.4,3.68,4.75,5.1,4.67,25-1.53,57.85-12.46,57.85-12.46s16.45,24.52-13.9,79.39c0,0,18.1-18.5,26.53-48.24C508.82,567.33,487.15,538,451.74,543Z" transform="translate(-162.64 -123.3)"/><path class="cls-34" d="M535.85,917c-41.57-30.71-89.94-54.6-89.94-54.6-8.62-26.56-17.83-50.5-17.83-50.5L309.78,823s-9.27,59.05-11.31,94Z" transform="translate(-162.64 -123.3)"/><path class="cls-38" d="M443,694.69c-1.77-7.76-12.9-29.1-12.9-29.1l-4.15,5.63-36.49-27.91s-37.66,6.35-47.85,14.63c-18.7,15.19-26.75,47.35-30.57,70.18-1.52,9.13-9.35,44.79-7.15,81.25.61,10.2-.53,29.75,7.56,33.69,26.78,13,114.22,3.51,122.71-14.91,4.51-9.77-8-46.19-2.38-60.44,2.89-7.31,10.33-19,13.7-26.08C452.54,726.7,444.93,703.2,443,694.69Z" transform="translate(-162.64 -123.3)"/><path class="cls-39" d="M441.43,674.89c-.42-.34-12.2-11.69-12.2-11.69l-3.3,8s8,16.87,8.22,16.38A66.46,66.46,0,0,1,441.43,674.89Z" transform="translate(-162.64 -123.3)"/><path class="cls-39" d="M425.93,671.22l-8.86,18.45C402.94,680.26,366.7,647,366.7,647l18.8-9.54Z" transform="translate(-162.64 -123.3)"/><path class="cls-34" d="M401,599.76c-33.25,44.13-20,105.75-20,105.75l35.19,2.32s-17-38.45-7.53-90.12C411.35,603,411.63,585.64,401,599.76Z" transform="translate(-162.64 -123.3)"/><path class="cls-12" d="M542.23,821.68c-.32-.3-8.93-8.4-14.72-9.39-11.57-2-33.26,4-44.67,6.73-11.62,2.81-21.69,5.25-21.56,15.9.06,5.83,9.17,12.76,14.29,13.63,7,1.19,19.78-2.58,26.78-1.51a49.87,49.87,0,0,1,14,4.34c1.22.67,3.83,2.13,5.21,2a7.06,7.06,0,0,0,2-1.24s3.76,3.71,5.4,4.19,6.38-.56,6.38-.56L521.51,833l11,7.87s5.47,7.07,8.08,8.28a4.62,4.62,0,0,0,5.18-.91L531.26,823.4s13,9.23,17.56,9c2-.09,5.2-1.94,5.2-1.94Z" transform="translate(-162.64 -123.3)"/><path class="cls-11" d="M370.32,689.67c6.74,25.06,1.68,96.88,1.68,96.88s30.36,6.91,81.77,19c3.39.8,5.05,4.08,7,7.27.3.49,8.08,3.07,9,5.36,3,7.75-3.69,26.46-11.64,28.89-1.34.41-11.84-1.89-11.84-1.89a23.62,23.62,0,0,1-8,1.51c-57.14-2.45-102.78-2.74-122.21-28.09-1.16-1.51-1.74-5.47-1.95-7.36-3-26.91,4.67-80.42,4.82-110.67.06-11.24,18.38-40.9,28-42.79C359.59,655.31,365,670.06,370.32,689.67Z" transform="translate(-162.64 -123.3)"/><path class="cls-34" d="M442.7,803.82c-34.23-11.65-70.45-16.35-70.81-16.39l-.84-.11.07-.84c.06-.7,5.47-69.89-1.16-94.52-5.37-19.93-11-31.81-22.8-29.52l-.34-1.73c13.06-2.56,19.38,10.46,24.85,30.79,6.39,23.73,1.92,85.94,1.28,94.28,5.65.78,38.82,5.64,70.32,16.37Z" transform="translate(-162.64 -123.3)"/><path class="cls-12" d="M548.52,803.19c1.91-8.72,4.81-7.44,16.75-8.08,11.73-.63,35-1.76,46,2.31,5.51,2,14.4,16.25,14.66,16.61l3.66,8.15s-3.68,2.73-4.71.69a29.52,29.52,0,0,0-9.76-11.25l13.33,14.06a7,7,0,0,1-5.34,2.07c-2.82-.18-5.67-3.3-7.45-4.84-3.31-2.85-9.61-8.7-9.61-8.7l10,19.53a.93.93,0,0,1-.86,1.35,11.7,11.7,0,0,1-5-1.14c-1.44-.91-9.13-8.81-11.14-13.48-.52-1.22-6.86-3.89-9.65-4.21-2.28-.26-7.74,4.34.48,5,2.43.18,6.48-.77,8.83,1.45.46.44,1.85,2.11.62,3a19.7,19.7,0,0,1-7.52,2.73c-4.43.42-8,1.25-9.65,1.45-11.23,1.35-15.68-3-19.7-4.58C548,819.62,547.27,808.89,548.52,803.19Z" transform="translate(-162.64 -123.3)"/><path class="cls-40" d="M684.27,857.59H536.49l47-101.92c2.06-4.47,7.57-7.58,12.86-7.28l120.22,6.89c5.56.32,8.6,5,6.5,10Z" transform="translate(-162.64 -123.3)"/><path class="cls-40" d="M308.25,728.06H518.37a0,0,0,0,1,0,0v6.24a0,0,0,0,1,0,0H306.1a0,0,0,0,1,0,0v-4.08A2.16,2.16,0,0,1,308.25,728.06Z"/><rect class="cls-41" x="69.09" y="734.14" width="1157.08" height="24.03"/><path class="cls-1" d="M1217.12,287h-59.25a15.26,15.26,0,0,1-15.24-15.24V205.26a2.66,2.66,0,0,1,2.66-2.66h64.54a2.65,2.65,0,0,1,2.65,2.66v56.21a2.66,2.66,0,1,1-5.31,0V207.91h-59.23v63.88a10,10,0,0,0,9.93,9.93h59.25a2.66,2.66,0,0,1,0,5.31Z" transform="translate(-162.64 -123.3)"/><path class="cls-1" d="M1218.06,287h-60.19a15.31,15.31,0,0,1-2.63-.24,2.65,2.65,0,0,1,0-5.23,9.9,9.9,0,0,0,8.21-9.77V261.47a2.65,2.65,0,0,1,2.66-2.65h64.54a2.64,2.64,0,0,1,2.65,2.65v10.32A15.26,15.26,0,0,1,1218.06,287Zm-53-5.31h53a9.94,9.94,0,0,0,9.93-9.93v-7.66h-59.23v7.66A15.23,15.23,0,0,1,1165.09,281.72Z" transform="translate(-162.64 -123.3)"/><path class="cls-1" d="M1193.75,226.65H1160.9a2.66,2.66,0,0,1,0-5.31h32.85a2.66,2.66,0,0,1,0,5.31Z" transform="translate(-162.64 -123.3)"/><path class="cls-1" d="M1193.75,245.39H1160.9a2.66,2.66,0,0,1,0-5.31h32.85a2.66,2.66,0,0,1,0,5.31Z" transform="translate(-162.64 -123.3)"/><path class="cls-1" d="M1128,273.5a2.66,2.66,0,0,1-2.65-2.66V188.6A2.65,2.65,0,0,1,1128,186h81.81a2.66,2.66,0,0,1,0,5.31h-79.15v79.58A2.66,2.66,0,0,1,1128,273.5Z" transform="translate(-162.64 -123.3)"/><path class="cls-1" d="M454.79,277.11H394a2.66,2.66,0,0,1-2.66-2.65v-80a2.66,2.66,0,0,1,2.66-2.65h79.4a2.65,2.65,0,0,1,2.65,2.65l.05,45a2.65,2.65,0,0,1-2.65,2.65h0a2.65,2.65,0,0,1-2.66-2.65l-.05-42.3H396.65V271.8h58.14a2.66,2.66,0,1,1,0,5.31Z" transform="translate(-162.64 -123.3)"/><path class="cls-1" d="M410.5,202.18a2.66,2.66,0,0,1-2.66-2.66V186.45a2.66,2.66,0,0,1,5.32,0v13.07A2.66,2.66,0,0,1,410.5,202.18Z" transform="translate(-162.64 -123.3)"/><path class="cls-1" d="M456.62,202.18a2.66,2.66,0,0,1-2.66-2.66V186.45a2.66,2.66,0,1,1,5.31,0v13.07A2.66,2.66,0,0,1,456.62,202.18Z" transform="translate(-162.64 -123.3)"/><path class="cls-1" d="M473.4,216.23H394a2.66,2.66,0,1,1,0-5.31h79.4a2.66,2.66,0,0,1,0,5.31Z" transform="translate(-162.64 -123.3)"/><path class="cls-1" d="M473.45,287a25.16,25.16,0,1,1,25.16-25.16A25.19,25.19,0,0,1,473.45,287Zm0-45a19.85,19.85,0,1,0,19.84,19.85A19.87,19.87,0,0,0,473.45,242Z" transform="translate(-162.64 -123.3)"/><path class="cls-1" d="M478.94,270a2.65,2.65,0,0,1-1.88-.78l-5.49-5.49a2.65,2.65,0,0,1-.78-1.88V252a2.66,2.66,0,0,1,5.31,0v8.75l4.71,4.71a2.66,2.66,0,0,1,0,3.76A2.61,2.61,0,0,1,478.94,270Z" transform="translate(-162.64 -123.3)"/><path class="cls-1" d="M430.53,252.49H411.05a2.66,2.66,0,0,1-2.66-2.66V230.35a2.66,2.66,0,0,1,2.66-2.66h19.48a2.66,2.66,0,0,1,2.66,2.66v19.48A2.66,2.66,0,0,1,430.53,252.49Zm-16.82-5.31h14.17V233H413.71Z" transform="translate(-162.64 -123.3)"/><path class="cls-1" d="M1343.06,524a51.6,51.6,0,1,1,51.6-51.6A51.65,51.65,0,0,1,1343.06,524Zm0-97.88a46.29,46.29,0,1,0,46.28,46.28A46.33,46.33,0,0,0,1343.06,426.08Z" transform="translate(-162.64 -123.3)"/><path class="cls-1" d="M1343.06,507.24a34.88,34.88,0,1,1,34.88-34.87A34.91,34.91,0,0,1,1343.06,507.24Zm0-64.44a29.57,29.57,0,1,0,29.57,29.57A29.6,29.6,0,0,0,1343.06,442.8Z" transform="translate(-162.64 -123.3)"/><path class="cls-1" d="M1356.58,426.08a2.65,2.65,0,0,1-2.65-2.65V400.6a2.66,2.66,0,1,1,5.31,0v22.83A2.66,2.66,0,0,1,1356.58,426.08Z" transform="translate(-162.64 -123.3)"/><path class="cls-1" d="M1329.54,426.08a2.66,2.66,0,0,1-2.66-2.65V400.6a2.66,2.66,0,1,1,5.31,0v22.83A2.65,2.65,0,0,1,1329.54,426.08Z" transform="translate(-162.64 -123.3)"/><path class="cls-1" d="M1368.74,403.26h-51.36a2.66,2.66,0,0,1,0-5.32h51.36a2.66,2.66,0,0,1,0,5.32Z" transform="translate(-162.64 -123.3)"/><path class="cls-1" d="M1393.75,438.87a2.66,2.66,0,0,1-2-.86l-7.66-8.35a2.65,2.65,0,1,1,3.91-3.59l7.67,8.35a2.66,2.66,0,0,1-2,4.45Z" transform="translate(-162.64 -123.3)"/><path class="cls-1" d="M1343.06,475a2.66,2.66,0,0,1-1.73-4.67l13.52-11.64a2.66,2.66,0,1,1,3.47,4l-13.53,11.64A2.63,2.63,0,0,1,1343.06,475Z" transform="translate(-162.64 -123.3)"/><path class="cls-1" d="M274.46,460.42a2.26,2.26,0,0,1-2.41-.41,10.11,10.11,0,0,0-6.25-2.15c-3.54,0-6.77,1-6.77,4,0,2.81,3.36,3.33,6.94,3.75,6.22.77,12.86,1.88,12.86,9.37,0,5.12-3.81,8.25-8.37,9.15a2.12,2.12,0,0,0-1.72,2.1v.22a2.17,2.17,0,0,1-2.17,2.16H265.5a2.17,2.17,0,0,1-2.17-2.16h0a2.15,2.15,0,0,0-1.73-2.12,12.73,12.73,0,0,1-8.18-4.77,2.17,2.17,0,0,1,1-3.23l1.09-.46a2.2,2.2,0,0,1,2.55.67,10.4,10.4,0,0,0,7.61,3.09c3.83,0,7.37-1.32,7.37-4.65,0-2.81-3.54-3.83-7.5-4.3-6.09-.68-12.25-1.75-12.05-8.82.2-7.61,7.72-8.4,9.33-9.29.32-.18.45-1.17.5-2a1.35,1.35,0,0,1,1.35-1.26s2.92-.34,3.64.38a2.77,2.77,0,0,1,.47,1.69,2.15,2.15,0,0,0,1.64,2.09,10.56,10.56,0,0,1,5.77,3.29,2.14,2.14,0,0,1-.82,3.28Z" transform="translate(-162.64 -123.3)"/><path class="cls-1" d="M266.57,489.06H265.5a2.61,2.61,0,0,1-2.61-2.61,1.69,1.69,0,0,0-1.37-1.68,13.17,13.17,0,0,1-8.46-4.95,2.48,2.48,0,0,1-.38-2.15,2.68,2.68,0,0,1,1.52-1.75l1.1-.46a2.66,2.66,0,0,1,3.06.79,10,10,0,0,0,7.27,2.93c1.62,0,6.92-.3,6.92-4.2,0-2.06-2.25-3.29-7.1-3.86-5.34-.6-12.66-1.42-12.45-9.27.18-6.54,5.44-8.26,8.26-9.18a10.28,10.28,0,0,0,1.31-.49h0a4.13,4.13,0,0,0,.28-1.65,1.8,1.8,0,0,1,1.79-1.69c.47-.06,3.12-.32,4,.52a3.24,3.24,0,0,1,.59,2,1.7,1.7,0,0,0,1.31,1.66,10.91,10.91,0,0,1,6,3.43,2.39,2.39,0,0,1,.52,2.11,2.7,2.7,0,0,1-1.49,1.86l-.86.4a2.7,2.7,0,0,1-2.89-.47,9.68,9.68,0,0,0-6-2.05c-1.91,0-6.33.35-6.33,3.56,0,2.35,2.84,2.87,6.55,3.31,5.6.69,13.26,1.64,13.26,9.81,0,5.8-4.52,8.75-8.74,9.58a1.7,1.7,0,0,0-1.36,1.67v.22A2.61,2.61,0,0,1,266.57,489.06Zm-10.29-12.92a1.63,1.63,0,0,0-.64.13l-1.09.47a1.78,1.78,0,0,0-1,1.17,1.63,1.63,0,0,0,.25,1.39,12.29,12.29,0,0,0,7.9,4.6,2.57,2.57,0,0,1,2.09,2.55,1.73,1.73,0,0,0,1.73,1.72h1.07a1.73,1.73,0,0,0,1.73-1.72v-.22a2.59,2.59,0,0,1,2.07-2.54c3.88-.76,8-3.45,8-8.71,0-6.83-5.65-8.09-12.48-8.93-3.26-.39-7.33-.87-7.33-4.19,0-2.82,2.63-4.44,7.22-4.44a10.55,10.55,0,0,1,6.54,2.25,1.82,1.82,0,0,0,1.94.35l.86-.4a1.79,1.79,0,0,0,1-1.25,1.49,1.49,0,0,0-.32-1.34,10.09,10.09,0,0,0-5.53-3.15,2.58,2.58,0,0,1-2-2.52A2.54,2.54,0,0,0,268,450c-.39-.39-2.19-.38-3.28-.25a.92.92,0,0,0-1,.85c-.11,1.8-.43,2.21-.72,2.38a10.25,10.25,0,0,1-1.46.55c-2.62.85-7.49,2.45-7.65,8.37-.18,6.51,5.17,7.64,11.66,8.36,3.39.4,7.89,1.33,7.89,4.74,0,3.14-3,5.09-7.81,5.09a10.75,10.75,0,0,1-7.94-3.24A1.88,1.88,0,0,0,256.28,476.14Z" transform="translate(-162.64 -123.3)"/><path class="cls-1" d="M312.89,524H277.24a12,12,0,0,1-12-12V501.33a2.66,2.66,0,0,1,5.32,0V512a6.7,6.7,0,0,0,6.69,6.7h35.65a6.7,6.7,0,0,0,0-13.39H298.23a2.66,2.66,0,1,1,0-5.31h14.66a12,12,0,0,1,0,24Z" transform="translate(-162.64 -123.3)"/><path class="cls-1" d="M312.89,505.26H298.22a2.66,2.66,0,1,1,0-5.31h14.67a6.7,6.7,0,0,0,0-13.39H295.12a2.66,2.66,0,0,1,0-5.31h17.77a12,12,0,0,1,0,24Z" transform="translate(-162.64 -123.3)"/><path class="cls-1" d="M312.89,486.56H295.12a2.66,2.66,0,0,1,0-5.31h17.77a6.7,6.7,0,0,0,0-13.39H299.83a2.66,2.66,0,1,1,0-5.31h13.06a12,12,0,0,1,0,24Z" transform="translate(-162.64 -123.3)"/><path class="cls-1" d="M265.48,504.08A35.06,35.06,0,1,1,300.54,469,35.1,35.1,0,0,1,265.48,504.08Zm0-64.81A29.75,29.75,0,1,0,295.22,469,29.79,29.79,0,0,0,265.48,439.27Z" transform="translate(-162.64 -123.3)"/></g></svg>